<svg height="510pt" viewBox="0 -3 510.81964 510" width="510pt" xmlns="http://www.w3.org/2000/svg">
    <path d="m391.667969 260.828125c34.289062-35.761719 43.910156-88.542969 24.449219-134.101563-19.460938-45.5625-64.25-75.101562-113.792969-75.050781h-135.679688l-64.855469 168.449219v249.683594c0 18.851562 15.28125 34.132812 34.132813 34.132812h170.667969c58.011718.058594 109.714844-36.585937 128.875-91.34375 19.164062-54.753906 1.59375-115.640625-43.796875-151.769531zm-221.609375-40.703125 43.175781-100.183594h89.089844c30.632812 0 55.464843 24.835938 55.464843 55.46875 0 30.632813-24.832031 55.464844-55.464843 55.464844h-132.265625zm136.53125 215.550781h-136.53125v-136.535156h136.53125c37.703125 0 68.265625 30.566406 68.265625 68.269531s-30.5625 68.265625-68.265625 68.265625zm0 0"
          fill="#f0785a"/>
    <path d="m189.855469 196.742188c-7.507813 15.875-21.632813 27.632812-38.605469 32.136718-16.972656 4.507813-35.066406 1.304688-49.460938-8.753906-8.558593-5.898438-15.390624-13.96875-19.796874-23.382812zm0 0"
          fill="#2c3e50"/>
    <path d="m194.804688 162.609375-.34375 20.566406c-.953126 4.699219-2.5 9.257813-4.605469 13.566407h-107.863281c-2.105469-4.308594-3.652344-8.867188-4.605469-13.566407l-.34375-20.566406zm0 0"
          fill="#f0c419"/>
    <path d="m195.65625 102.875v9.472656l-.253906 16.128906h-118.957032l-.253906-16.128906v-9.472656c0-32.988281 26.742188-59.734375 59.730469-59.734375 15.835937.042969 31.015625 6.328125 42.242187 17.496094 11.234376 11.179687 17.53125 26.386719 17.492188 42.238281zm0 0"
          fill="#f0c419"/>
    <path d="m118.855469 54.148438c-4.710938 0-8.53125-3.820313-8.53125-8.53125v-8.105469c-.027344-7.832031-5.359375-14.648438-12.953125-16.554688l-14.703125-3.671875c-3.046875-.652344-5.492188-2.914062-6.382813-5.894531-.894531-2.984375-.089844-6.214844 2.09375-8.433594 2.183594-2.21875 5.40625-3.070312 8.402344-2.226562l14.761719 3.671875c15.179687 3.820312 25.824219 17.457031 25.847656 33.109375v8.105469c0 4.710937-3.820313 8.53125-8.535156 8.53125zm0 0"
          fill="#2c3e50"/>
    <path d="m152.988281 54.148438c-4.710937 0-8.53125-3.820313-8.53125-8.53125v-8.105469c.011719-15.632813 10.632813-29.265625 25.789063-33.101563l14.820312-3.679687c4.503906-.964844 8.964844 1.816406 10.074219 6.285156 1.109375 4.472656-1.527344 9.019531-5.960937 10.269531l-14.761719 3.671875c-7.574219 1.925781-12.878907 8.738281-12.894531 16.554688v8.105469c0 4.710937-3.820313 8.53125-8.535157 8.53125zm0 0"
          fill="#2c3e50"/>
    <path d="m195.402344 128.476562-.597656 34.132813h-117.761719l-.597657-34.132813zm0 0" fill="#2c3e50"/>
    <g fill="#f9eab0">
        <path d="m108.085938 100.214844s-71.277344 24.207031-90.613282 45.003906c-12.949218 14.519531-11.90625 36.726562 2.347656 49.96875 14.25 13.238281 36.476563 12.648438 50.003907-1.328125 19.335937-20.789063 38.261719-93.644531 38.261719-93.644531zm0 0"
              fill-rule="evenodd"/>
        <path d="m163.757812 100.214844s71.28125 24.207031 90.609376 45.003906c12.945312 14.519531 11.902343 36.726562-2.347657 49.96875-14.25 13.238281-36.476562 12.648438-50.003906-1.328125-19.328125-20.789063-38.257813-93.644531-38.257813-93.644531zm0 0"
              fill-rule="evenodd"/>
        <path d="m487.769531 59.074219c-2.652343 0-5.15625-1.234375-6.769531-3.339844-1.617188-2.105469-2.160156-4.839844-1.472656-7.402344l6.261718-23.324219c.789063-2.945312 3.089844-5.242187 6.035157-6.03125 2.945312-.789062 6.089843.050782 8.246093 2.207032s2.996094 5.300781 2.207032 8.246094l-6.246094 23.3125c-1 3.738281-4.390625 6.339843-8.261719 6.332031zm0 0"/>
        <path d="m458.21875 76.140625c-.746094 0-1.488281-.101563-2.210938-.296875l-23.320312-6.246094c-4.554688-1.222656-7.253906-5.902344-6.035156-10.457031 1.222656-4.550781 5.902344-7.25 10.457031-6.03125l23.3125 6.246094c4.136719 1.105469 6.808594 5.109375 6.253906 9.355469-.558593 4.242187-4.175781 7.417968-8.457031 7.421874zm0 0"/>
        <path d="m449.363281 265.007812c-3.863281-.003906-7.242187-2.601562-8.238281-6.332031l-6.246094-23.3125c-1.21875-4.550781 1.480469-9.230469 6.035156-10.453125 4.550782-1.21875 9.230469 1.480469 10.453126 6.035156l6.246093 23.3125c.691407 2.566407.148438 5.304688-1.46875 7.414063-1.621093 2.105469-4.125 3.339844-6.78125 3.335937zm0 0"/>
        <path d="m478.964844 282.074219c-4.285156 0-7.898438-3.175781-8.457032-7.421875-.558593-4.246094 2.117188-8.246094 6.253907-9.351563l23.3125-6.246093c2.945312-.792969 6.089843.050781 8.246093 2.207031 2.15625 2.152343 2.996094 5.296875 2.207032 8.242187-.785156 2.945313-3.085938 5.246094-6.03125 6.035156l-23.3125 6.246094c-.726563.195313-1.472656.292969-2.21875.289063zm0 0"/>
        <path d="m67.65625 503.941406c-3.859375-.003906-7.238281-2.601562-8.234375-6.332031l-6.273437-23.3125c-1.21875-4.550781 1.480468-9.230469 6.035156-10.453125 4.550781-1.21875 9.230468 1.480469 10.453125 6.035156l6.246093 23.3125c.691407 2.558594.148438 5.296875-1.460937 7.402344-1.613281 2.105469-4.113281 3.34375-6.765625 3.347656zm0 0"/>
        <path d="m8.53125 469.808594c-4.285156 0-7.902344-3.175782-8.4570312-7.421875-.5585938-4.246094 2.1171872-8.246094 6.2539062-9.355469l23.3125-6.261719c2.945313-.789062 6.085937.050781 8.242187 2.207031 2.160157 2.15625 3 5.296876 2.210938 8.242188s-3.085938 5.246094-6.03125 6.035156l-23.316406 6.246094c-.722656.203125-1.46875.304688-2.214844.308594zm0 0"/>
    </g>
    <path d="m481.519531 73.84375c-8.164062 4.714844-18.601562 1.917969-23.3125-6.246094l-8.535156-14.78125c-4.710937-8.160156-1.914063-18.597656 6.25-23.3125 8.160156-4.710937 18.597656-1.914062 23.3125 6.246094l8.53125 14.78125c4.714844 8.164062 1.917969 18.601562-6.246094 23.3125zm0 0"
          fill="#f0c419"/>
    <path d="m481.21875 235.449219c8.164062 4.710937 10.960938 15.148437 6.246094 23.3125l-8.53125 14.777343c-4.714844 8.164063-15.152344 10.960938-23.316406 6.25-8.160157-4.714843-10.957032-15.152343-6.246094-23.316406l8.535156-14.777344c4.710938-8.164062 15.148438-10.960937 23.3125-6.246093zm0 0"
          fill="#2c3e50"/>
    <path d="m29.5625 493.117188c-8.164062-4.710938-10.960938-15.148438-6.246094-23.3125l8.53125-14.78125c4.714844-8.160157 15.152344-10.957032 23.3125-6.246094 8.164063 4.714844 10.960938 15.152344 6.25 23.316406l-8.535156 14.777344c-4.714844 8.164062-15.152344 10.960937-23.3125 6.246094zm0 0"
          fill="#f0c419"/>
</svg>