<svg height="512pt" viewBox="-26 0 511 512" width="512pt" xmlns="http://www.w3.org/2000/svg">
    <path d="m353.601562 361.929688c-4.875 0-8.824218-3.949219-8.824218-8.828126 0-1.234374.210937-30.4375 18.484375-45.417968 10.257812-7.953125 23.636719-10.675782 36.191406-7.367188 35.503906 7.058594 42.375-18.859375 42.664063-19.96875.722656-3.109375 3.0625-5.585937 6.125-6.480468 3.058593-.894532 6.367187-.066407 8.648437 2.164062 2.277344 2.230469 3.179687 5.515625 2.351563 8.597656-3.757813 15.003906-21.792969 41.320313-63.265626 32.996094-7.371093-2.1875-15.335937-.8125-21.550781 3.714844-11.667969 9.589844-11.996093 31.542968-11.996093 31.761718 0 4.878907-3.949219 8.828126-8.828126 8.828126zm0 0"
          fill="#2c3e50"/>
    <path d="m245.519531 512c-135.105469 0-245.019531-114.839844-245.019531-256s109.914062-256 245.019531-256c73.789063.289062 143.359375 34.460938 188.6875 92.691406 12.070313 15.25 9.632813 37.371094-5.472656 49.625-7.234375 5.851563-16.507813 8.558594-25.75 7.523438-9.242187-1.039063-17.6875-5.734375-23.445313-13.039063-32.148437-41.460937-81.558593-65.859375-134.019531-66.179687-96.503906 0-175.015625 83.15625-175.015625 185.378906s78.511719 185.378906 175.015625 185.378906c52.46875-.324218 101.882813-24.730468 134.027344-66.207031 5.757813-7.304687 14.203125-12 23.445313-13.035156 9.246093-1.039063 18.519531 1.671875 25.75 7.519531 15.105468 12.253906 17.546874 34.375 5.476562 49.628906-45.328125 58.238282-114.902344 92.421875-188.699219 92.714844zm0 0"
          fill="#d75e72"/>
    <path d="m168.488281 248.761719c-1.277343 6.882812-3.476562 13.5625-6.53125 19.863281-12.019531 23.5-18.910156 49.285156-20.214843 75.652344 0 53.671875 47.402343 97.101562 105.929687 97.101562s105.929687-43.429687 105.929687-97.101562c-1.304687-26.367188-8.191406-52.152344-20.214843-75.652344-3.054688-6.300781-5.25-12.980469-6.53125-19.863281l-1.851563-19.773438-5.5625-94.632812c-.214844-3.453125-2.425781-6.460938-5.660156-7.695313-3.230469-1.234375-6.882812-.46875-9.347656 1.957032l-21.449219 21.453124h-70.621094l-21.453125-21.453124c-2.460937-2.425782-6.117187-3.191407-9.347656-1.957032s-5.441406 4.242188-5.660156 7.695313l-5.558594 94.632812zm0 0"
          fill="#35495e"/>
    <g fill="#2c2f38">
        <path d="m230.015625 264.828125c-14.625 0-26.480469-11.855469-26.480469-26.484375 0-4.875 3.953125-8.828125 8.828125-8.828125s8.828125 3.953125 8.828125 8.828125 3.949219 8.828125 8.824219 8.828125c4.878906 0 8.828125-3.953125 8.828125-8.828125v-17.652344c0-4.878906 3.953125-8.828125 8.828125-8.828125s8.828125 3.949219 8.828125 8.828125v17.652344c0 14.628906-11.855469 26.484375-26.484375 26.484375zm0 0"/>
        <path d="m265.328125 264.828125c-14.625 0-26.484375-11.855469-26.484375-26.484375v-17.652344c0-4.878906 3.953125-8.828125 8.828125-8.828125s8.828125 3.949219 8.828125 8.828125v17.652344c0 4.875 3.953125 8.828125 8.828125 8.828125s8.828125-3.953125 8.828125-8.828125 3.949219-8.828125 8.828125-8.828125c4.875 0 8.824219 3.953125 8.824219 8.828125 0 14.628906-11.855469 26.484375-26.480469 26.484375zm0 0"/>
        <path d="m221.191406 203.035156h-8.828125c-4.875 0-8.828125-3.953125-8.828125-8.828125s3.953125-8.828125 8.828125-8.828125h8.828125c4.875 0 8.824219 3.953125 8.824219 8.828125s-3.949219 8.828125-8.824219 8.828125zm0 0"/>
        <path d="m282.984375 203.035156h-8.828125c-4.875 0-8.828125-3.953125-8.828125-8.828125s3.953125-8.828125 8.828125-8.828125h8.828125c4.875 0 8.824219 3.953125 8.824219 8.828125s-3.949219 8.828125-8.824219 8.828125zm0 0"/>
        <path d="m211.480469 379.585938c-2.359375 0-4.707031-.332032-6.976563-.980469-11.746094-3.324219-22.808594-8.71875-32.660156-15.933594-2.636719-1.824219-4.074219-4.9375-3.757812-8.128906.316406-3.191407 2.339843-5.960938 5.285156-7.230469 2.945312-1.273438 6.347656-.847656 8.890625 1.113281 8.164062 5.988281 17.332031 10.472657 27.074219 13.242188 2.136718.589843 4.425781.269531 6.320312-.882813 2.683594-1.699218 4.554688-4.417968 5.1875-7.53125 1.234375-5.238281-.949219-10.6875-5.453125-13.628906-15.300781-10.371094-26.285156-25.96875-30.898437-43.867188-1.019532-4.71875 1.945312-9.382812 6.652343-10.464843s9.410157 1.820312 10.554688 6.511719c3.5625 13.292968 11.6875 24.90625 22.949219 32.8125 10.933593 6.875 16.296874 19.925781 13.367187 32.503906-1.714844 7.847656-6.566406 14.65625-13.425781 18.835937-3.96875 2.363281-8.496094 3.617188-13.109375 3.628907zm0 0"/>
        <path d="m283.867188 379.585938c-4.636719-.015626-9.1875-1.28125-13.164063-3.664063-6.847656-4.171875-11.691406-10.960937-13.410156-18.792969-2.953125-12.582031 2.398437-25.652344 13.332031-32.546875 11.261719-7.90625 19.386719-19.523437 22.949219-32.8125 1.144531-4.691406 5.847656-7.59375 10.554687-6.511719 4.707032 1.082032 7.671875 5.746094 6.652344 10.464844-4.613281 17.898438-15.597656 33.496094-30.898438 43.867188-4.492187 2.929687-6.675781 8.359375-5.460937 13.585937.628906 3.128907 2.511719 5.863281 5.207031 7.574219 1.890625 1.148438 4.175782 1.46875 6.3125.882812 9.742188-2.769531 18.914063-7.253906 27.082032-13.242187 2.539062-1.960937 5.941406-2.386719 8.886718-1.117187 2.945313 1.273437 4.96875 4.042968 5.289063 7.234374.316406 3.191407-1.121094 6.304688-3.757813 8.128907-9.855468 7.214843-20.914062 12.609375-32.664062 15.933593-2.246094.65625-4.570313.996094-6.910156 1.015626zm0 0"/>
    </g>
    <path d="m185.878906 247.171875c-1.597656 0-3.167968-.4375-4.535156-1.261719l-44.140625-26.484375c-4.179687-2.507812-5.535156-7.929687-3.027344-12.109375 2.507813-4.179687 7.929688-5.535156 12.113281-3.027344l44.136719 26.480469c3.40625 2.042969 5.03125 6.105469 3.972657 9.933594-1.0625 3.828125-4.546876 6.476563-8.519532 6.46875zm0 0"
          fill="#bdc3c7"/>
    <path d="m141.742188 273.65625c-3.96875 0-7.449219-2.644531-8.511719-6.464844-1.0625-3.824218.554687-7.882812 3.957031-9.929687l44.136719-26.480469c2.703125-1.625 6.070312-1.679688 8.828125-.148438 2.753906 1.527344 4.488281 4.414063 4.539062 7.566407.054688 3.15625-1.578125 6.097656-4.285156 7.71875l-44.136719 26.484375c-1.367187.820312-2.933593 1.25-4.527343 1.253906zm0 0"
          fill="#bdc3c7"/>
    <path d="m309.464844 247.171875c-3.964844.003906-7.449219-2.640625-8.511719-6.464844-1.0625-3.820312.558594-7.882812 3.957031-9.925781l44.136719-26.484375c2.707031-1.621094 6.070313-1.679687 8.828125-.148437s4.488281 4.417968 4.542969 7.570312c.050781 3.152344-1.582031 6.09375-4.285157 7.71875l-44.140624 26.480469c-1.367188.820312-2.929688 1.253906-4.527344 1.253906zm0 0"
          fill="#bdc3c7"/>
    <path d="m353.601562 273.65625c-1.597656-.003906-3.164062-.441406-4.535156-1.261719l-44.136718-26.484375c-4.183594-2.507812-5.539063-7.929687-3.03125-12.113281 2.511718-4.179687 7.933593-5.535156 12.113281-3.027344l44.136719 26.484375c3.410156 2.039063 5.035156 6.105469 3.972656 9.929688-1.058594 3.828125-4.546875 6.476562-8.519532 6.472656zm0 0"
          fill="#bdc3c7"/>
    <path d="m256.5 229.515625h-17.65625c-4.875 0-8.828125-3.949219-8.828125-8.824219 0-4.878906 3.953125-8.828125 8.828125-8.828125h17.65625c4.875 0 8.828125 3.949219 8.828125 8.828125 0 4.875-3.953125 8.824219-8.828125 8.824219zm0 0"
          fill="#d75e72"/>
</svg>