<svg height="512pt" viewBox="0 -4 512.00178 512" width="512pt" xmlns="http://www.w3.org/2000/svg">
    <path d="m338.441406 0h-138.847656c-19.167969 0-34.710938 15.542969-34.710938 34.710938v433.898437c0 19.171875 15.542969 34.714844 34.710938 34.714844h138.847656c95.855469 0 173.558594-77.707031 173.558594-173.5625v-156.203125c0-95.851563-77.703125-173.558594-173.558594-173.558594zm104.136719 329.761719c-.046875 57.496093-46.644531 104.089843-104.136719 104.136719h-69.421875l-34.710937-147.871094v-216.601563h104.132812c57.492188.046875 104.089844 46.640625 104.136719 104.132813zm0 0"
          fill="#2fa8cc"/>
    <path d="m269.019531 347.03125v95.546875c0 7.722656-16.574219 14.578125-43.042969 19.351563l-.347656-1.996094v-101.359375c14.859375-2.164063 29.417969-6.035157 43.390625-11.542969zm0 0"
          fill="#cc4b4c"/>
    <path d="m173.5625 363.695312v103.960938c-11.023438.609375-22.738281.953125-34.714844.953125-11.972656 0-23.6875-.34375-34.710937-.953125v-103.960938c10.675781.519532 22.214843.78125 34.710937.78125s24.039063-.261718 34.714844-.78125zm0 0"
          fill="#cc4b4c"/>
    <path d="m225.976562 461.929688c-17.347656 2.914062-34.847656 4.824218-52.414062 5.726562v-103.960938c17.441406-.679687 34.828125-2.390624 52.066406-5.121093v101.359375zm0 0"
          fill="#b19046"/>
    <path d="m104.136719 363.695312v103.960938c-17.566407-.902344-35.066407-2.8125-52.414063-5.726562l.347656-1.996094v-101.359375c17.238282 2.730469 34.625 4.441406 52.066407 5.121093zm0 0"
          fill="#b19046"/>
    <path d="m52.070312 358.574219v101.359375l-.347656 1.996094c-26.46875-4.773438-43.042968-11.628907-43.042968-19.351563v-95.546875c13.96875 5.507812 28.53125 9.378906 43.390624 11.542969zm0 0"
          fill="#cc4b4c"/>
    <path d="m269.019531 303.730469v43.300781c-13.972656 5.507812-28.53125 9.378906-43.390625 11.542969-17.238281 2.730469-34.625 4.441406-52.066406 5.121093-10.675781.519532-22.21875.78125-34.714844.78125s-24.035156-.261718-34.710937-.78125c-17.441407-.679687-34.828125-2.390624-52.066407-5.121093-14.859374-2.164063-29.421874-6.035157-43.390624-11.542969v-43.300781zm0 0"
          fill="#802f34"/>
    <path d="m269.019531 303.730469c0-14.378907-58.28125-26.035157-130.171875-26.035157s-130.167968 11.65625-130.167968 26.035157c0 14.378906 58.277343 26.03125 130.167968 26.03125s130.171875-11.652344 130.171875-26.03125zm0 0"
          fill="#f9eab0"/>
    <g fill="#cb8252">
        <path d="m121.492188 303.730469c-2.410157 0-4.714844-1.003907-6.359376-2.769531l-112.8125-121.492188c-2.109374-2.269531-2.847656-5.496094-1.933593-8.460938.910156-2.960937 3.335937-5.214843 6.359375-5.90625 3.023437-.6875 6.183594.285157 8.292968 2.558594l112.816407 121.492188c2.34375 2.527344 2.96875 6.207031 1.589843 9.371094-1.378906 3.160156-4.5 5.207031-7.953124 5.207031zm0 0"/>
        <path d="m156.207031 303.730469c-3.457031 0-6.582031-2.042969-7.960937-5.210938-1.382813-3.164062-.753906-6.847656 1.597656-9.378906l112.8125-121.488281c3.261719-3.515625 8.753906-3.71875 12.269531-.457032 3.511719 3.261719 3.714844 8.753907.453125 12.265626l-112.8125 121.492187c-1.640625 1.769531-3.945312 2.777344-6.359375 2.777344zm0 0"/>
    </g>
</svg>