<svg height="503pt" viewBox="0 0 503.58237 503" width="503pt" xmlns="http://www.w3.org/2000/svg">
    <path d="m459.933594 76.484375 29.15625-29.160156 14.230468-14.230469v-32.800781h-102.226562l-50.417969 50.417969c-3.257812 3.253906-5.089843 7.671874-5.089843 12.277343 0 4.609375 1.832031 9.023438 5.089843 12.28125l38.878907 38.875.953124.957031zm0 0"
          fill="#cb8252"/>
    <path d="m301.734375 494.242188c-2.964844 5.75-8.890625 9.367187-15.363281 9.371093h-251.660156c-19.144532-.058593-34.6523442-15.566406-34.710938-34.710937v-433.898438c.0585938-19.148437 15.566406-34.65625 34.710938-34.710937h234.304687c19.148437.054687 34.65625 15.5625 34.714844 34.710937-.058594 19.144532-15.566407 34.652344-34.714844 34.710938h-199.59375v147.527344h156.207031c8.628906.042968 15.929688 6.386718 17.179688 14.925781v.519531l-19.785156 53.976562h-153.601563v147.527344h157.421875zm0 0"
          fill="#65ddb9"/>
    <path d="m234.390625 253.601562c-4.164063 11.105469-7.894531 22.214844-11.105469 33.148438-8.605468 26.691406-13.566406 54.421875-14.753906 82.441406.035156 22.933594 6.367188 45.417969 18.3125 65 .046875 0 .085938.035156.085938.085938 17.347656 27.949218 43.75 49.109375 74.804687 59.964844.085937 0 .171875.085937.257813.085937 17.339843 6.246094 35.636718 9.417969 54.066406 9.371094 81.484375 0 147.523437-60.222657 147.523437-134.507813 0-28.550781-9.71875-72.808594-26.292969-116.632812v-.085938zm0 0"
          fill="#f09372"/>
    <g fill="#f3d55b">
        <path d="m269.882812 288.746094c4.566407 10.460937 7.925782 21.410156 10.015626 32.628906 1.191406 7.722656-1.015626 16.75 3.105468 23.820312 9.042969 15.542969 25.210938 4.792969 31.988282-5.90625 6.777343-10.703124 10.753906-31.894531 14.769531-43.945312zm0 0"/>
        <path d="m381.832031 295.34375 12.695313 25.605469c7.480468 9.972656 21.449218 12.367187 31.820312 5.453125 4.855469-3.238282 8.332032-8.167969 9.753906-13.824219l6.074219-24.011719zm0 0"/>
        <path d="m489.089844 47.324219c-2.339844-1.140625-4.78125-2.070313-7.289063-2.777344-12.929687-3.296875-25.601562-4.683594-36.707031 4.082031-5.902344 4.597656-10.414062 10.671875-15.882812 15.878906-2.800782 2.707032-5.917969 5.070313-9.285157 7.03125-5.292969 3.035157-11.800781 3.46875-16.835937 6.941407-3.375 2.496093-6.0625 5.8125-7.808594 9.632812-3.351562 7.894531-4.980469 16.414063-4.773438 24.992188v34.710937c0 9.585938 7.769532 17.355469 17.355469 17.355469 9.585938 0 17.355469-7.769531 17.355469-17.355469v-26.035156c0 9.585938 7.773438 17.355469 17.359375 17.355469 9.582031 0 17.355469-7.769531 17.355469-17.355469v-45.296875zm0 0"/>
    </g>
    <path d="m477.289062 251.953125c0-28.757813-54.394531-52.070313-121.492187-52.070313s-121.492187 23.3125-121.492187 52.070313c0 28.753906 54.394531 52.066406 121.492187 52.066406s121.492187-23.3125 121.492187-52.066406zm0 0"
          fill="#ecf0f1"/>
    <path d="m442.578125 251.953125c0-9.585937-36.910156-17.355469-82.441406-17.355469s-82.441407 7.769532-82.441407 17.355469 36.910157 17.355469 82.441407 17.355469 82.441406-7.769532 82.441406-17.355469zm0 0"
          fill="#f3d55b"/>
</svg>