<svg height="512pt" viewBox="0 0 512 512" width="512pt" xmlns="http://www.w3.org/2000/svg">
    <path d="m282.484375 258.472656v-28.957031c-.03125-9.738281-7.917969-17.625-17.65625-17.652344h-194.207031v-141.242187h247.171875c19.476562-.058594 35.253906-15.832032 35.308593-35.3125-.054687-19.476563-15.832031-35.2500002-35.308593-35.308594h-291.308594c-14.609375.0429688-26.4414062 11.875-26.484375 26.484375v450.207031c.0585938 19.476563 15.832031 35.25 35.308594 35.308594 19.480468-.058594 35.253906-15.832031 35.3125-35.308594v-194.207031h64.351562zm0 0"
          fill="#71c285"/>
    <path d="m289.457031 260.324219s31.957031-21.363281 62.851563-22.507813c5.914062-.277344 11.574218 2.425782 15.070312 7.203125 3.5 4.777344 4.371094 10.988281 2.320313 16.542969-4.753907 12.335938-8.15625 25.152344-10.152344 38.222656zm0 0"
          fill="#3b97d3"/>
    <path d="m397.242188 432.550781s15.449218 79.183594 77.859374 79.449219c-5.074218-7.046875-9.3125-14.660156-12.625-22.6875-3.320312-7.160156-5.238281-14.890625-5.648437-22.773438-.53125-14.742187 3.53125-30.457031-2.121094-44.667968-1.976562-5.320313-6.019531-9.621094-11.210937-11.917969-.085938-.089844-19.683594-12.625-19.773438-12.710937zm0 0"
          fill="#2980ba"/>
    <path d="m218.835938 242.671875s74.53125 0 182.015624 87.789063c20.515626 16.851562 29.835938 43.792968 24.117188 69.722656-5.714844 25.925781-25.5 46.449218-51.199219 53.113281-50.652343 12.746094-102.703125 19.09375-154.933593 18.890625zm0 0"
          fill="#285680"/>
    <path d="m424.785156 400.597656c3.226563 2.476563 6.683594 4.632813 10.328125 6.441406.660157.332032 1.335938.625 2.027344.882813h.089844c1.957031.9375 4.039062 1.59375 6.179687 1.941406 0 .050781.039063.089844.085938.089844 8.582031 2.25 17.671875-.882813 23.042968-7.945313 9.53125-11.917968 10.152344-28.160156 14.917969-42.195312 2.660157-7.402344 6.703125-14.234375 11.917969-20.128906 5.46875-6.746094 11.71875-12.824219 18.625-18.09375-59.761719-17.746094-86.246094 40.871094-86.246094 40.871094zm0 0"
          fill="#3b97d3"/>
    <path d="m317.441406 361.929688c5.9375-9.214844 15.148438-15.835938 25.773438-18.535157 9.445312-2.121093 23.21875-.621093 26.835937 10.503907 3.089844 9.445312-4.234375 19.332031-10.148437 25.6875 0 .617187 4.234375 11.742187 4.5 12.976562 1.339844 4.707031 1.308594 9.699219-.085938 14.390625-3.621094 9.796875-15.804687 9.089844-23.925781 7.414063-11.550781-2.550782-22.179687-8.230469-30.71875-16.417969zm0 0"
          fill="#3b97d3"/>
    <path d="m151.214844 275.066406c16.707031-20.179687 41.425781-32.023437 67.621094-32.394531 0 0 1.148437 0 3.441406.175781 5.789062.140625 11.535156.96875 17.125 2.472656.355468.085938.707031.175782 1.148437.261719 15.628907 4.335938 29.824219 12.746094 41.136719 24.367188v.085937c22.484375 23.484375 34.792969 54.886719 34.25 87.394532 0 63.382812-43.429688 114.757812-97.101562 114.757812-53.671876 0-97.105469-51.375-97.105469-114.757812 0-1.414063 0-2.648438.089843-4.0625v-.085938"
          fill="#4482c3"/>
    <path d="m190.675781 298.992188c-4.382812-12.179688-14.71875-21.25-27.367187-24.011719-3.996094-.765625-8.105469-.738281-12.09375.085937-5.921875 1.15625-11.488282 3.695313-16.242188 7.417969-21.132812 17.191406-26.699218 47.160156-13.152344 70.796875v.085938c5.121094 8.863281 13.800782 15.097656 23.835938 17.125 18.160156 2.082031 35.519531-8.054688 42.636719-24.890626zm0 0"
          fill="#e6e7e8"/>
    <path d="m233.269531 274.199219c-21.570312-3.988281-43.011719 14.15625-47.886719 40.523437-4.875 26.367188 8.664063 50.976563 30.234376 54.964844 21.574218 3.988281 43.015624-14.15625 47.890624-40.523438 4.875-26.367187-8.664062-50.976562-30.238281-54.964843zm0 0"
          fill="#ecf0f1"/>
    <g fill="#2c3e50">
        <path d="m215.5625 442.085938c-12.714844.011718-25.113281-3.9375-35.480469-11.300782-2.523437-1.890625-3.84375-4.984375-3.46875-8.117187.378907-3.132813 2.398438-5.824219 5.296875-7.0625 2.902344-1.238281 6.242188-.835938 8.765625 1.054687 18.855469 12.832032 44.34375 9.40625 59.144531-7.941406 3.464844-3.347656 8.96875-3.300781 12.375.105469s3.453126 8.910156.109376 12.375c-12.070313 13.0625-28.960938 20.609375-46.742188 20.886719zm0 0"/>
        <path d="m150.070312 317.792969c-.59375-.015625-1.183593-.074219-1.765624-.175781-.554688-.097657-1.089844-.277344-1.589844-.53125-.566406-.191407-1.101563-.457032-1.597656-.792969l-1.316407-1.058594c-.777343-.859375-1.40625-1.84375-1.851562-2.914063-.5-1.046874-.742188-2.195312-.707031-3.355468 0-4.875 3.953124-8.828125 8.828124-8.828125s8.828126 3.953125 8.828126 8.828125c-.015626 1.152344-.253907 2.292968-.707032 3.355468-.449218 1.070313-1.074218 2.054688-1.855468 2.914063-1.691407 1.609375-3.929688 2.523437-6.265626 2.558594zm0 0"/>
        <path d="m220.691406 317.792969c-.59375-.015625-1.183594-.074219-1.765625-.175781-.554687-.097657-1.089843-.277344-1.589843-.53125-.566407-.191407-1.105469-.457032-1.597657-.792969l-1.316406-1.058594c-.777344-.859375-1.40625-1.84375-1.855469-2.914063-.496094-1.046874-.738281-2.195312-.703125-3.355468 0-4.875 3.949219-8.828125 8.828125-8.828125 4.875 0 8.824219 3.953125 8.824219 8.828125-.011719 1.152344-.253906 2.292968-.703125 3.355468-.449219 1.070313-1.074219 2.054688-1.855469 2.914063-1.695312 1.609375-3.929687 2.523437-6.265625 2.558594zm0 0"/>
    </g>
    <path d="m300.136719 158.789062c-2.335938-.03125-4.574219-.945312-6.265625-2.558593-.796875-.84375-1.425782-1.832031-1.855469-2.914063-.496094-1.046875-.738281-2.195312-.707031-3.351562 0-4.878906 3.953125-8.828125 8.828125-8.828125s8.828125 3.949219 8.828125 8.828125c-.011719 1.152344-.253906 2.292968-.707032 3.351562-.425781 1.082032-1.054687 2.070313-1.851562 2.914063-1.695312 1.609375-3.933594 2.523437-6.269531 2.558593zm0 0"
          fill="#90bae1"/>
    <path d="m317.792969 203.035156c-2.335938-.035156-4.574219-.949218-6.265625-2.5625-.800782-.84375-1.429688-1.832031-1.855469-2.910156-.496094-1.046875-.738281-2.199219-.707031-3.355469 0-4.875 3.953125-8.828125 8.828125-8.828125s8.828125 3.953125 8.828125 8.828125c-.015625 1.152344-.253906 2.292969-.707032 3.355469-.425781 1.078125-1.054687 2.066406-1.851562 2.910156-1.695312 1.613282-3.933594 2.527344-6.269531 2.5625zm0 0"
          fill="#90bae1"/>
    <path d="m388.414062 145.65625c0 12.1875-9.882812 22.066406-22.070312 22.066406s-22.066406-9.878906-22.066406-22.066406 9.878906-22.070312 22.066406-22.070312 22.070312 9.882812 22.070312 22.070312zm0 0"
          fill="#b0d3f0"/>
    <path d="m282.484375 83.863281c0 12.1875-9.882813 22.066407-22.070313 22.066407s-22.070312-9.878907-22.070312-22.066407c0-12.191406 9.882812-22.070312 22.070312-22.070312s22.070313 9.878906 22.070313 22.070312zm0 0"
          fill="#b0d3f0"/>
    <path d="m450.207031 75.035156c0 17.0625-13.832031 30.894532-30.898437 30.894532-17.0625 0-30.894532-13.832032-30.894532-30.894532s13.832032-30.898437 30.894532-30.898437c17.066406 0 30.898437 13.835937 30.898437 30.898437zm0 0"
          fill="#90bae1"/>
</svg>