<svg height="512pt" viewBox="0 0 512 512.17257" width="512pt" xmlns="http://www.w3.org/2000/svg">
    <path d="m176.636719 70.792969c18.679687-.039063 36.765625 6.5625 51.023437 18.625l54.910156 43.167969 27.804688-50.40625c-25.605469-50.316407-77.28125-82.003907-133.738281-82.007813zm0 0"
          fill="#cc66a1"/>
    <path d="m301.371094 315.492188-45.285156 37.785156-100.191407-103.019532c-3.191406-3.414062-4.890625-7.960937-4.722656-12.628906.164063-4.671875 2.179687-9.082031 5.605469-12.265625l32.21875-30.1875zm0 0"
          fill="#547580"/>
    <path d="m294.925781 282.65625-56.847656-60.824219c-3.183594-3.429687-7.605469-5.441406-12.28125-5.59375-4.675781-.148437-9.21875 1.582031-12.613281 4.800781l-6.53125 6.003907c-3.421875 3.203125-5.429688 7.636719-5.578125 12.324219-.152344 4.6875 1.570312 9.242187 4.78125 12.65625l28.691406 30.632812zm0 0"
          fill="#2c3e50"/>
    <path d="m493.988281 143.089844c-.183593 5.890625-2.730469 11.457031-7.0625 15.449218l-18.976562 17.742188-166.578125 139.210938-112.375-120.316407 11.300781-10.507812c3.164063-2.882813 5.585937-6.484375 7.0625-10.503907 9.882813-26.339843 16.667969-53.746093 20.214844-81.65625l.085937-3.089843.972656-28.777344c.179688-9.089844 4.585938-17.574219 11.917969-22.949219 6.765625-5.023437 15.785157-5.800781 23.3125-2.011718 7.527344 3.792968 12.269531 11.503906 12.261719 19.929687l-1.234375 35.3125-.089844 3.617187c-.132812 3.570313 1.894531 6.867188 5.144531 8.355469 3.246094 1.488281 7.070313.875 9.6875-1.558593l20.742188-19.15625 82.363281-76.269532c6.535157-6.066406 16.070313-7.617187 24.191407-3.933594 8.117187 3.683594 13.234374 11.882813 12.972656 20.792969-.410156 5.75-3.113282 11.097657-7.503906 14.832031l25.777343-24.097656c5.769531-5.378906 13.972657-7.269531 21.515625-4.960937 7.542969 2.3125 13.277344 8.46875 15.050782 16.15625 1.769531 7.6875-.695313 15.734375-6.464844 21.113281l-25.777344 24.097656c8.902344-8.300781 22.84375-7.824218 31.160156 1.058594 4.042969 4.25 6.203125 9.945312 6.003906 15.804688-.199218 5.859374-2.742187 11.394531-7.0625 15.359374l-25.777343 24.097657c8.902343-8.300781 22.84375-7.828125 31.164062 1.058593 3.988281 4.28125 6.144531 9.953126 6 15.800782zm0 0"
          fill="#35495e"/>
    <g fill="#2c3e50">
        <path d="m335.976562 239.136719-4.945312 4.589843c-3.414062 3.210938-7.96875 4.933594-12.65625 4.785157-4.683594-.152344-9.121094-2.15625-12.324219-5.582031l-44.136719-47.3125c-4.054687-4.289063-5.652343-10.339844-4.238281-16.066407l5.738281-24.628906c2.101563-8.933594 10.695313-14.765625 19.773438-13.417969l22.597656 3.265625c3.96875.582031 7.617188 2.515625 10.328125 5.472657l20.128907 21.539062zm0 0"/>
        <path d="m346.761719 114.304688c-3.445313-3.449219-3.445313-9.035157 0-12.484376l62.421875-62.417968c3.464844-3.34375 8.96875-3.296875 12.375.109375 3.40625 3.402343 3.453125 8.910156.105468 12.371093l-62.417968 62.421876c-3.449219 3.445312-9.035156 3.445312-12.484375 0zm0 0"/>
        <path d="m377.976562 145.511719c-3.445312-3.449219-3.445312-9.035157 0-12.484375l62.421876-62.417969c2.214843-2.296875 5.496093-3.214844 8.582031-2.410156 3.089843.808593 5.5 3.21875 6.304687 6.304687.808594 3.085938-.109375 6.371094-2.40625 8.585938l-62.417968 62.421875c-3.449219 3.445312-9.035157 3.445312-12.484376 0zm0 0"/>
        <path d="m402.941406 182.964844c-3.445312-3.445313-3.445312-9.035156 0-12.480469l49.9375-49.9375c3.464844-3.347656 8.96875-3.300781 12.375.105469s3.453125 8.910156.109375 12.375l-49.9375 49.9375c-3.449219 3.445312-9.035156 3.445312-12.484375 0zm0 0"/>
    </g>
    <path d="m494.429688 450.378906v44.136719c-.027344 9.742187-7.914063 17.628906-17.652344 17.65625h-123.585938c-9.742187-.027344-17.628906-7.914063-17.65625-17.65625v-44.136719zm0 0"
          fill="#35495e"/>
    <path d="m512.085938 207.621094v180.964844c-.960938 12.457031-6.382813 24.148437-15.269532 32.925781-1.507812 1.640625-2.355468 3.777343-2.386718 6.003906v22.863281h-158.894532v-15.449218c0-4.25-.96875-8.445313-2.824218-12.269532-3.53125-7.148437-7.328126-14.125-11.300782-20.921875l14.390625-119.082031.175781-43.519531.265626-66.828125v-.527344c.191406-8.84375 5.648437-16.714844 13.859374-20.003906 8.207032-3.285156 17.589844-1.355469 23.832032 4.910156 3.929687 4.226562 6 9.855469 5.738281 15.621094v-35.308594c0-12.1875 9.882813-22.070312 22.070313-22.070312s22.066406 9.882812 22.066406 22.070312v35.308594c0-12.1875 9.882812-22.066406 22.070312-22.066406s22.070313 9.878906 22.070313 22.066406v35.3125c0-12.1875 9.878906-22.070313 22.066406-22.070313 12.191406 0 22.070313 9.882813 22.070313 22.070313zm0 0"
          fill="#547580"/>
    <path d="m388.5 432.722656h97.105469c9.75 0 17.652343 7.90625 17.652343 17.65625v8.828125c0 9.75-7.902343 17.65625-17.652343 17.65625h-97.105469c-9.75 0-17.65625-7.90625-17.65625-17.65625v-8.828125c0-9.75 7.90625-17.65625 17.65625-17.65625zm0 0"
          fill="#2c3e50"/>
    <path d="m405.007812 326.792969h45.285157c9.738281.03125 17.625 7.917969 17.65625 17.65625v35.308593c-.03125 9.738282-7.917969 17.628907-17.65625 17.65625h-64.707031c-5.894532.019532-11.40625-2.933593-14.652344-7.855468l-14.035156-21.011719c-2.992188-4.503906-3.769532-10.121094-2.121094-15.269531zm0 0"
          fill="#2c3e50"/>
    <path d="m379.671875 291.484375c-4.875 0-8.828125-3.953125-8.828125-8.828125v-88.277344c0-4.875 3.953125-8.828125 8.828125-8.828125s8.828125 3.953125 8.828125 8.828125v88.277344c0 4.875-3.953125 8.828125-8.828125 8.828125zm0 0"
          fill="#35495e"/>
    <path d="m423.808594 291.484375c-4.875 0-8.824219-3.953125-8.824219-8.828125v-88.277344c0-4.875 3.949219-8.828125 8.824219-8.828125 4.878906 0 8.828125 3.953125 8.828125 8.828125v88.277344c0 4.875-3.949219 8.828125-8.828125 8.828125zm0 0"
          fill="#35495e"/>
    <path d="m467.949219 300.308594c-4.875 0-8.828125-3.949219-8.828125-8.824219v-70.621094c0-4.875 3.953125-8.828125 8.828125-8.828125s8.828125 3.953125 8.828125 8.828125v70.621094c0 4.875-3.953125 8.824219-8.828125 8.824219zm0 0"
          fill="#35495e"/>
    <path d="m176.636719.171875c-46.828125-.011719-91.742188 18.582031-124.855469 51.695313-33.113281 33.113281-51.7109375 78.027343-51.6953125 124.855468v158.898438c.0351565 97.492187 79.0585935 176.515625 176.5507815 176.550781 82.882812 0 150.070312-67.1875 150.070312-150.066406v-8.828125h44.136719c19.503906 0 35.3125-15.808594 35.3125-35.3125 0-19.5-15.808594-35.308594-35.3125-35.308594h-158.894531c-7.121094 0-14.078125 2.152344-19.953125 6.179688-1.773438 1.257812-3.457032 2.644531-5.03125 4.148437-10.109375 10.097656-13.136719 25.296875-7.664063 38.496094 5.46875 13.203125 18.355469 21.808593 32.648438 21.796875h44.136719v8.828125c-.066407 43.847656-35.597657 79.378906-79.449219 79.445312-58.503907 0-105.929688-47.425781-105.929688-105.929687v-158.898438c-.039062-28.105468 11.109375-55.070312 30.984375-74.945312s46.839844-31.023438 74.945313-30.984375zm0 0"
          fill="#cc66a1"/>
</svg>