<svg height="512pt" viewBox="0 0 512.00027 512" width="512pt" xmlns="http://www.w3.org/2000/svg">
    <path d="m185.378906 512h-154.480468c-17.046876-.046875-30.851563-13.851562-30.898438-30.894531.046875-17.046875 13.851562-30.851563 30.898438-30.898438h13.238281c9.738281-.027343 17.628906-7.917969 17.65625-17.65625v-353.101562c-.027344-9.738281-7.917969-17.625-17.65625-17.65625h-13.238281c-17.046876-.046875-30.851563-13.851563-30.898438-30.894531.046875-17.046876 13.851562-30.851563 30.898438-30.898438h132.410156c17.046875.046875 30.851562 13.851562 30.898437 30.898438-.046875 17.042968-13.851562 30.847656-30.898437 30.894531h-13.238282c-9.738281.03125-17.628906 7.917969-17.65625 17.65625v353.101562c.027344 9.738281 7.917969 17.628907 17.65625 17.65625h17.652344zm0 0"
          fill="#2fa8cc"/>
    <path d="m512 388.414062v105.929688c0 9.75-7.90625 17.65625-17.65625 17.65625h-264.828125v-123.585938c-.046875-23.21875 5.652344-46.085937 16.597656-66.558593 1.5-2.738281 3-5.386719 4.589844-7.945313 1.589844-2.5625 3.179687-4.945312 4.945313-7.238281 3.472656-4.960937 7.277343-9.679687 11.386718-14.125 2.03125-2.207031 4.058594-4.324219 6.179688-6.355469 2.117187-2.03125 4.332031-3.980468 6.550781-5.835937 4.6875-3.941407 9.625-7.574219 14.785156-10.875 2.363281-1.511719 4.730469-2.949219 7.175781-4.300781 2.648438-1.5 5.296876-2.824219 7.945313-4.148438 36.007813-17.265625 77.648437-18.453125 114.582031-3.265625 2.777344 1.011719 5.488282 2.191406 8.121094 3.53125 2.738281 1.324219 5.386719 2.738281 8.035156 4.238281 5.371094 3.03125 10.53125 6.421875 15.445313 10.152344 2.296875 1.761719 4.589843 3.617188 6.796875 5.472656 2.207031 1.851563 4.589844 3.972656 6.710937 6l1.324219 1.324219c4.203125 4.210937 8.125 8.695313 11.738281 13.417969 1.503907 1.953125 2.984375 3.929687 4.414063 6.03125 1.765625 2.558594 3.445312 5.121094 5.035156 7.855468 13.214844 21.914063 20.175781 47.03125 20.125 72.625zm0 0"
          fill="#b0d3f0"/>
    <g fill="#90bae1">
        <path d="m229.515625 388.414062h79.449219c11.707031 0 22.933594 4.648438 31.210937 12.925782 8.277344 8.277344 12.925781 19.507812 12.925781 31.210937v79.449219h-114.757812zm0 0"/>
        <path d="m491.875 315.761719c-17.480469 21.628906-53.230469 46.167969-125.53125 46.167969-23.59375.429687-47.105469-2.90625-69.648438-9.886719-19.097656-5.722657-36.480468-16.097657-50.582031-30.1875 1.5-2.738281 3-5.386719 4.589844-7.945313 1.589844-2.5625 3.179687-4.945312 4.945313-7.238281.570312.386719 1.101562.828125 1.585937 1.324219 9.523437 10.140625 21.15625 18.066406 34.074219 23.214844 5.730468 2.457031 11.632812 4.492187 17.65625 6.089843 18.726562 4.898438 38.027344 7.242188 57.378906 6.976563 13.300781.09375 26.589844-.910156 39.726562-3.003906 5.945313-.988282 11.839844-2.285157 17.652344-3.882813 22.074219-4.945313 41.828125-17.199219 56.058594-34.78125.503906-.695313 1.132812-1.292969 1.851562-1.765625 1.765626 2.296875 3.53125 4.589844 5.207032 7.0625 1.679687 2.472656 3.445312 5.121094 5.035156 7.855469zm0 0"/>
        <path d="m469.363281 287.160156c-10.765625 15.847656-27.027343 27.140625-45.640625 31.691406-5.773437 1.867188-11.671875 3.3125-17.652344 4.328126-13.105468 2.386718-26.40625 3.539062-39.726562 3.441406-7.679688 0-15.003906-.351563-22.066406-1.058594-.746094.003906-1.488282-.085938-2.207032-.265625-11.222656-.941406-22.316406-3.042969-33.105468-6.269531-6.070313-1.890625-11.976563-4.28125-17.65625-7.148438-9.4375-4.542968-17.734375-11.152344-24.273438-19.332031 2.03125-2.207031 4.058594-4.324219 6.179688-6.355469 2.117187-2.03125 4.324218-3.972656 6.53125-5.828125.226562.183594.433594.390625.617187.617188 9.621094 12.976562 28.957031 21.984375 55.085938 25.867187 5.558593.792969 11.476562 1.410156 17.652343 1.765625 4.238282.265625 8.652344.351563 13.242188.351563 15.734375.203125 31.425781-1.605469 46.699219-5.382813 20.566406-5.296875 35.308593-14.566406 41.84375-26.660156.242187-.46875.574219-.886719.96875-1.234375 2.296875 1.761719 4.589843 3.617188 6.796875 5.472656 2.207031 1.851563 4.589844 3.972656 6.710937 6zm0 0"/>
        <path d="m440.410156 265.535156c-5.5625 17.742188-40.433594 25.773438-74.066406 25.773438-4.234375 0-8.738281-.175782-13.242188-.441406-5.914062-.371094-11.808593-1.046876-17.652343-2.027344-18.007813-2.914063-34.515625-8.828125-41.050781-18.804688-.089844-.097656-.152344-.21875-.175782-.351562 2.472656-1.589844 4.945313-3.089844 7.503906-4.503906 2.558594-1.410157 5.296876-2.824219 7.945313-4.148438 3.621094 4.0625 16.242187 9.003906 34.78125 11.300781 7.265625.875 14.574219 1.320313 21.890625 1.324219 36.460938 0 55.792969-9.621094 57.292969-13.507812.101562-.816407.308593-1.617188.617187-2.382813 2.777344 1.011719 5.488282 2.191406 8.121094 3.53125 2.738281 1.324219 5.386719 2.738281 8.035156 4.238281zm0 0"/>
        <path d="m344.277344 325.5625c-4.875 0-8.828125-3.953125-8.828125-8.828125v-34.25c0-4.875 3.953125-8.828125 8.828125-8.828125s8.824218 3.953125 8.824218 8.828125v34.25c0 4.875-3.949218 8.828125-8.824218 8.828125zm0 0"/>
        <path d="m414.898438 353.105469c-4.878907 0-8.828126-3.953125-8.828126-8.828125v-31.867188c0-4.878906 3.949219-8.828125 8.828126-8.828125 4.875 0 8.824218 3.949219 8.824218 8.828125v31.867188c0 4.875-3.949218 8.828125-8.824218 8.828125zm0 0"/>
        <path d="m300.136719 352.664062c-4.875 0-8.828125-3.953124-8.828125-8.828124v-34.871094c0-4.875 3.953125-8.828125 8.828125-8.828125s8.828125 3.953125 8.828125 8.828125v34.871094c0 4.875-3.953125 8.828124-8.828125 8.828124zm0 0"/>
        <path d="m512 397.242188v17.65625h-97.101562c-4.878907 0-8.828126-3.953126-8.828126-8.828126s3.949219-8.828124 8.828126-8.828124zm0 0"/>
        <path d="m512 432.550781v17.65625h-123.585938c-4.875 0-8.828124-3.953125-8.828124-8.828125s3.953124-8.828125 8.828124-8.828125zm0 0"/>
        <path d="m512 467.863281v17.652344h-123.585938c-4.875 0-8.828124-3.949219-8.828124-8.824219 0-4.878906 3.953124-8.828125 8.828124-8.828125zm0 0"/>
        <path d="m467.863281 450.207031c-4.875 0-8.828125-3.953125-8.828125-8.828125v-35.308594c0-4.875 3.953125-8.828124 8.828125-8.828124s8.828125 3.953124 8.828125 8.828124v35.308594c0 4.875-3.953125 8.828125-8.828125 8.828125zm0 0"/>
        <path d="m423.722656 485.515625c-4.875 0-8.824218-3.949219-8.824218-8.824219v-35.3125c0-4.875 3.949218-8.828125 8.824218-8.828125s8.828125 3.953125 8.828125 8.828125v35.3125c0 4.875-3.953125 8.824219-8.828125 8.824219zm0 0"/>
        <path d="m476.691406 476.691406v35.308594h-17.65625v-35.308594c0-4.878906 3.953125-8.828125 8.828125-8.828125s8.828125 3.949219 8.828125 8.828125zm0 0"/>
    </g>
    <path d="m256 211.863281c0 9.75-7.90625 17.652344-17.65625 17.652344s-17.652344-7.902344-17.652344-17.652344 7.902344-17.65625 17.652344-17.65625 17.65625 7.90625 17.65625 17.65625zm0 0"
          fill="#bdc3c7"/>
    <path d="m344.277344 150.070312c0 9.75-7.90625 17.652344-17.65625 17.652344s-17.65625-7.902344-17.65625-17.652344 7.90625-17.65625 17.65625-17.65625 17.65625 7.90625 17.65625 17.65625zm0 0"
          fill="#bdc3c7"/>
    <path d="m441.378906 52.964844c0 9.75-7.902344 17.65625-17.65625 17.65625-9.75 0-17.652344-7.90625-17.652344-17.65625s7.902344-17.65625 17.652344-17.65625c9.753906 0 17.65625 7.90625 17.65625 17.65625zm0 0"
          fill="#ecf0f1"/>
    <path d="m282.484375 52.964844c0 9.75-7.90625 17.65625-17.65625 17.65625s-17.65625-7.90625-17.65625-17.65625 7.90625-17.65625 17.65625-17.65625 17.65625 7.90625 17.65625 17.65625zm0 0"
          fill="#ecf0f1"/>
    <path d="m432.550781 194.207031c0 9.75-7.902343 17.65625-17.652343 17.65625-9.753907 0-17.65625-7.90625-17.65625-17.65625s7.902343-17.65625 17.65625-17.65625c9.75 0 17.652343 7.90625 17.652343 17.65625zm0 0"
          fill="#ecf0f1"/>
    <path d="m512 123.585938c0 9.75-7.90625 17.65625-17.65625 17.65625s-17.652344-7.90625-17.652344-17.65625 7.902344-17.65625 17.652344-17.65625 17.65625 7.90625 17.65625 17.65625zm0 0"
          fill="#bdc3c7"/>
    <path d="m344.277344 35.308594c-2.339844-.03125-4.578125-.945313-6.269532-2.558594-.796874-.84375-1.425781-1.832031-1.851562-2.914062-.453125-1.058594-.695312-2.199219-.707031-3.351563.03125-2.339844.945312-4.578125 2.558593-6.269531 2.085938-2.066406 5.066407-2.960938 7.945313-2.382813.585937.082031 1.152344.261719 1.675781.53125.542969.175781 1.050782.441407 1.503906.792969.527344.351562.96875.707031 1.410157 1.058594 3.414062 3.480468 3.414062 9.054687 0 12.535156-.433594.402344-.90625.757812-1.410157 1.058594-.453124.351562-.960937.621094-1.503906.796875-.527344.265625-1.09375.445312-1.675781.527343-.554687.101563-1.113281.160157-1.675781.175782zm0 0"
          fill="#bdc3c7"/>
    <path d="m397.242188 132.414062c-2.335938-.035156-4.574219-.949218-6.269532-2.558593-.796875-.847657-1.425781-1.835938-1.851562-2.914063-.453125-1.0625-.691406-2.203125-.707032-3.355468.03125-2.335938.945313-4.578126 2.558594-6.265626 2.089844-2.066406 5.066406-2.960937 7.945313-2.386718.585937.085937 1.152343.261718 1.679687.53125.539063.175781 1.046875.445312 1.5.792968.527344.355469.96875.707032 1.410156 1.0625 3.414063 3.480469 3.414063 9.050782 0 12.535157-.429687.398437-.90625.753906-1.410156 1.058593-.453125.347657-.960937.617188-1.5.792969-.527344.265625-1.09375.445313-1.679687.53125-.554688.101563-1.113281.160157-1.675781.175781zm0 0"
          fill="#bdc3c7"/>
    <path d="m238.34375 132.414062c-2.335938-.035156-4.574219-.949218-6.265625-2.558593-.796875-.847657-1.425781-1.835938-1.855469-2.914063-.453125-1.0625-.691406-2.203125-.707031-3.355468.03125-2.335938.945313-4.578126 2.5625-6.265626 2.085937-2.066406 5.0625-2.960937 7.945313-2.386718.582031.085937 1.148437.261718 1.675781.53125.542969.175781 1.050781.445312 1.5.792968.53125.355469.972656.707032 1.414062 1.0625 3.414063 3.480469 3.414063 9.050782 0 12.535157-.433593.398437-.90625.753906-1.414062 1.058593-.449219.347657-.957031.617188-1.5.792969-.527344.265625-1.09375.445313-1.675781.53125-.554688.101563-1.117188.160157-1.679688.175781zm0 0"
          fill="#ecf0f1"/>
    <path d="m308.964844 220.691406c-2.335938-.035156-4.574219-.949218-6.265625-2.5625-.800781-.84375-1.429688-1.832031-1.855469-2.914062-.453125-1.058594-.691406-2.199219-.707031-3.351563.03125-2.339843.945312-4.578125 2.5625-6.269531 2.085937-2.066406 5.0625-2.960938 7.945312-2.382812.582031.082031 1.148438.261718 1.675781.53125.542969.175781 1.050782.445312 1.5.792968.53125.351563.972657.707032 1.414063 1.058594 3.414063 3.480469 3.414063 9.054688 0 12.535156-.433594.402344-.90625.757813-1.414063 1.058594-.449218.351562-.957031.621094-1.5.796875-.527343.265625-1.09375.445313-1.675781.527344-.554687.101562-1.117187.164062-1.679687.179687zm0 0"
          fill="#ecf0f1"/>
    <path d="m494.34375 52.964844c-2.335938-.035156-4.574219-.949219-6.265625-2.558594-.796875-.84375-1.425781-1.832031-1.855469-2.914062-.453125-1.0625-.691406-2.199219-.707031-3.355469.03125-2.335938.945313-4.574219 2.5625-6.265625 2.085937-2.066406 5.0625-2.960938 7.945313-2.382813.582031.082031 1.148437.261719 1.675781.527344.542969.175781 1.050781.445313 1.5.796875.53125.351562.972656.703125 1.414062 1.058594 3.414063 3.480468 3.414063 9.054687 0 12.535156-.433593.402344-.90625.757812-1.414062 1.058594-.449219.351562-.957031.617187-1.5.792968-.527344.265626-1.09375.445313-1.675781.53125-.554688.101563-1.117188.160157-1.679688.175782zm0 0"
          fill="#ecf0f1"/>
    <path d="m476.691406 220.691406c-2.339844-.035156-4.578125-.949218-6.269531-2.5625-.796875-.84375-1.425781-1.832031-1.855469-2.914062-.449218-1.058594-.691406-2.199219-.703125-3.351563.03125-2.339843.945313-4.578125 2.558594-6.269531 2.085937-2.066406 5.066406-2.960938 7.945313-2.382812.585937.082031 1.152343.261718 1.675781.53125.542969.175781 1.050781.445312 1.5.792968.53125.351563.972656.707032 1.414062 1.058594 3.414063 3.480469 3.414063 9.054688 0 12.535156-.433593.402344-.90625.757813-1.414062 1.058594-.449219.351562-.957031.621094-1.5.796875-.527344.265625-1.09375.445313-1.675781.527344-.554688.101562-1.113282.164062-1.675782.179687zm0 0"
          fill="#bdc3c7"/>
    <path d="m211.863281 388.414062h26.480469c24.378906 0 44.140625 19.761719 44.140625 44.136719v79.449219h-97.105469c-9.75 0-17.65625-7.90625-17.65625-17.65625v-61.792969c0-24.375 19.761719-44.136719 44.140625-44.136719zm0 0"
          fill="#b0d3f0"/>
    <path d="m225.101562 423.722656c-12.1875 0-22.066406 9.882813-22.066406 22.070313v66.207031h44.136719v-66.207031c0-12.1875-9.878906-22.070313-22.070313-22.070313zm0 0"
          fill="#285680"/>
</svg>