<svg height="511pt" viewBox="-4 0 511 511.98119" width="511pt" xmlns="http://www.w3.org/2000/svg">
    <path d="m231.5 314.023438 78.101562 129.128906 11.28125 49.03125c-5.65625 12.132812-17.859374 19.859375-31.242187 19.785156-12.164063-.003906-23.449219-6.351562-29.765625-16.746094l-94.9375-156.984375-34.796875-57.535156-18.398437-30.460937-41.828126 41.828124v185.1875c0 19.171876-15.539062 34.710938-34.710937 34.710938s-34.710937-15.539062-34.710937-34.710938v-433.898437c0-19.171875 15.539062-34.710937 34.710937-34.710937s34.710937 15.539062 34.710937 34.710937v150.476563l175.035157-175.035157c9.980469-9.953125 24.984375-12.902343 37.988281-7.464843s21.445312 18.1875 21.367188 32.285156c.003906 9.148437-3.6875 17.910156-10.238282 24.296875l-131.730468 131.730469 26.464843 43.824218zm0 0"
          fill="#67b9cc"/>
    <path d="m355.707031 253.75-50.175781 206.152344c-.503906 2.097656-.191406 4.308594.867188 6.1875l22.988281 41.429687c2.152343 3.875 6.882812 5.503907 10.96875 3.773438l37.382812-15.621094c2.324219-.960937 4.109375-2.890625 4.886719-5.28125s.464844-5.003906-.851562-7.144531l-9.414063-15.292969c-1.199219-1.945313-1.570313-4.292969-1.027344-6.515625.539063-2.222656 1.949219-4.140625 3.90625-5.320312l16.628907-10.101563c1.960937-1.179687 3.367187-3.09375 3.90625-5.316406.542968-2.222657.171874-4.570313-1.027344-6.519531l-10.144532-16.488282c-1.195312-1.949218-1.566406-4.296875-1.027343-6.519531.542969-2.222656 1.949219-4.136719 3.910156-5.316406l16.609375-10.066407c1.960938-1.179687 3.367188-3.09375 3.910156-5.316406.539063-2.222656.167969-4.570312-1.027344-6.519531l-10.144531-16.488281c-1.195312-1.941406-1.566406-4.28125-1.03125-6.496094.535157-2.21875 1.929688-4.128906 3.875-5.316406l20.949219-12.695313c1.960938-1.183593 3.371094-3.101562 3.914062-5.328125l16.59375-68.191406zm0 0"
          fill="#b19046"/>
    <path d="m290.941406 178.46875-179.945312 114.476562c-1.824219 1.160157-3.144532 2.957032-3.707032 5.042969l-12.207031 45.722657c-1.128906 4.269531 1.160157 8.699218 5.292969 10.25l37.894531 14.371093c2.355469.902344 4.988281.738281 7.210938-.453125 2.222656-1.191406 3.816406-3.289062 4.367187-5.75l3.851563-17.503906c1.050781-4.664062 5.671875-7.601562 10.335937-6.570312l19.015625 4.121093c4.664063 1.03125 9.285157-1.90625 10.332031-6.570312l4.160157-18.863281c1.046875-4.664063 5.667969-7.597657 10.332031-6.570313l19.015625 4.121094c4.664063 1.03125 9.285156-1.90625 10.335937-6.566407l4.15625-18.867187c1.046876-4.660156 5.667969-7.597656 10.335938-6.570313l23.976562 5.207032c2.238282.484375 4.582032.070312 6.515626-1.152344l59.515624-37.863281zm0 0"
          fill="#e4c05c"/>
    <path d="m355.707031 253.75.058594.101562h.085937c28.476563 23.351563 68.246094 27.160157 100.632813 9.636719 32.386719-17.523437 50.957031-52.894531 46.988281-89.503906s-29.683594-67.183594-65.074218-77.359375zm0 0"
          fill="#802f34"/>
    <path d="m332.09375 90.90625c-20.324219 12.835938-34.667969 33.265625-39.835938 56.738281-5.171874 23.472657-.738281 48.039063 12.308594 68.222657 27.371094 42.085937 83.53125 54.273437 125.882813 27.320312 20.320312-12.835938 34.667969-33.265625 39.835937-56.738281 5.171875-23.472657.738282-48.039063-12.308594-68.226563-27.371093-42.082031-83.53125-54.269531-125.882812-27.316406zm0 0"
          fill="#cc4b4c"/>
    <path d="m392.300781 130.3125c-4.832031 3.058594-8.246093 7.917969-9.476562 13.503906-1.230469 5.585938-.175781 11.429688 2.925781 16.234375 6.515625 10.023438 19.886719 12.925781 29.972656 6.511719 4.828125-3.0625 8.230469-7.929688 9.457032-13.511719 1.222656-5.585937.164062-11.429687-2.941407-16.230469-6.515625-10-19.859375-12.898437-29.9375-6.507812zm0 0"
          fill="#802f34"/>
    <path d="m390.460938 148.945312c-2.265626.007813-4.445313-.871093-6.074219-2.449218-17.691407-18.964844-25.324219-45.203125-20.558594-70.699219.429687-3.355469 1.042969-6.683594 1.847656-9.96875 10.675781-43.867187 47.730469-72.714844 82.605469-64.402344 14.84375 3.8125 27.539062 13.417969 35.25 26.660157 11.738281 20.683593 14.855469 45.15625 8.679688 68.121093-2.109376 8.804688-5.421876 17.273438-9.851563 25.167969-1.464844 2.824219-4.359375 4.617188-7.539063 4.675781-3.183593.058594-6.140624-1.625-7.710937-4.394531s-1.496094-6.171875.1875-8.871094c3.636719-6.5 6.363281-13.464844 8.09375-20.707031 4.96875-18.5 2.578125-38.199219-6.664063-54.976563-5.269531-9.3125-14.089843-16.09375-24.445312-18.796874-25.574219-6.132813-53.28125 17.019531-61.691406 51.625-.660156 2.683593-1.164063 5.402343-1.519532 8.140624-3.851562 20.023438 1.855469 40.699219 15.429688 55.914063 2.542969 2.464844 3.332031 6.226563 1.996094 9.503906-1.335938 3.28125-4.527344 5.417969-8.070313 5.402344zm0 0"
          fill="#95a5a5"/>
</svg>