<svg height="512pt" viewBox="0 0 512.00017 512" width="512pt" xmlns="http://www.w3.org/2000/svg">
    <path d="m467.863281 149.539062v-43.609374c0-58.503907-47.429687-105.929688-105.933593-105.929688-58.503907 0-105.929688 47.425781-105.929688 105.929688v43.609374l35.308594-4.589843v-39.019531c0-39 31.621094-70.621094 70.621094-70.621094 39.003906 0 70.621093 31.621094 70.621093 70.621094v39.019531zm0 0"
          fill="#bdc3c7"/>
    <path d="m291.308594 476.691406c0 19.5-15.808594 35.308594-35.308594 35.308594h-220.691406c-19.5 0-35.308594-15.808594-35.308594-35.308594v-441.382812c0-19.5 15.808594-35.308594 35.308594-35.308594 19.503906 0 35.3125 15.808594 35.3125 35.308594v406.070312h185.378906c19.5 0 35.308594 15.808594 35.308594 35.3125zm0 0"
          fill="#955ba5"/>
    <path d="m497.9375 391.40625c-89.765625 18.105469-182.246094 18.105469-272.011719 0-8.222656-1.707031-14.101562-8.96875-14.0625-17.363281v-201.859375c-.039062-8.398438 5.839844-15.65625 14.0625-17.367188 89.765625-18.101562 182.246094-18.101562 272.011719 0 8.21875 1.710938 14.101562 8.96875 14.0625 17.367188v201.859375c.039062 8.394531-5.84375 15.65625-14.0625 17.363281zm0 0"
          fill="#e4c05c"/>
    <path d="m361.929688 141.242188v263.765624c-45.679688-.03125-91.246094-4.582031-136.03125-13.59375-8.21875-1.71875-14.089844-8.992187-14.035157-17.390624v-201.796876c-.054687-8.398437 5.816407-15.667968 14.035157-17.390624 44.785156-9.007813 90.351562-13.5625 136.03125-13.59375zm0 0"
          fill="#b19046"/>
    <path d="m388.308594 282.484375 7.707031 38.140625c.738281 3.636719-.195313 7.414062-2.542969 10.285156s-5.859375 4.539063-9.570312 4.539063h-43.941406c-3.707032 0-7.21875-1.664063-9.5625-4.535157-2.347657-2.867187-3.285157-6.636718-2.550782-10.269531l7.742188-38.304687c.777344-3.464844-.058594-7.097656-2.269532-9.875-12.441406-15.101563-11.003906-37.273438 3.28125-50.644532 14.285157-13.371093 36.5-13.339843 50.746094.070313 14.25 13.410156 15.621094 35.585937 3.140625 50.652344-2.1875 2.816406-2.988281 6.46875-2.179687 9.941406zm0 0"
          fill="#2c3e50"/>
    <g fill="#f9eab0">
        <path d="m247.171875 300.136719c-4.875 0-8.828125-3.949219-8.828125-8.828125v-105.929688c0-4.875 3.953125-8.828125 8.828125-8.828125s8.828125 3.953125 8.828125 8.828125v105.929688c0 4.878906-3.953125 8.828125-8.828125 8.828125zm0 0"/>
        <path d="m247.171875 370.757812c-4.875 0-8.828125-3.953124-8.828125-8.828124v-35.308594c0-4.875 3.953125-8.828125 8.828125-8.828125s8.828125 3.953125 8.828125 8.828125v35.308594c0 4.875-3.953125 8.828124-8.828125 8.828124zm0 0"/>
    </g>
</svg>