<svg height="512pt" viewBox="0 0 512 512.00026" width="512pt" xmlns="http://www.w3.org/2000/svg">
    <path d="m330.945312 276.125h.089844l110.34375-154.039062v354.605468c0 19.5 15.808594 35.308594 35.3125 35.308594 19.5 0 35.308594-15.808594 35.308594-35.308594v-432.554687c0-11.703125-4.648438-22.929688-12.925781-31.210938-8.277344-8.277343-19.507813-12.925781-31.210938-12.925781l-9.003906.265625c-11.007813.335937-21.222656 5.789063-27.632813 14.742187l-172.667968 240.992188h-5.117188l-172.667968-240.992188c-6.410157-8.953124-16.625-14.40625-27.632813-14.742187l-9.003906-.265625c-24.375 0-44.136719 19.761719-44.136719 44.136719v432.554687c0 19.5 15.808594 35.308594 35.308594 35.308594 19.503906 0 35.3125-15.808594 35.3125-35.308594v-354.605468l95.957031 133.914062 124.730469 61.792969zm0 0"
          fill="#e57e25"/>
    <path d="m308.964844 274.960938v100.75c-.019532 39.816406-9.507813 79.058593-27.683594 114.484374l-5.789062 11.316407c-3.367188 6.476562-10.074219 10.523437-17.375 10.488281h-92.511719c-7.296875.039062-14.003907-4.007812-17.371094-10.476562l-5.792969-11.320313c-18.175781-35.429687-27.664062-74.671875-27.683594-114.492187v-100.75c.132813-10.597657 8.824219-19.082032 19.421876-18.960938h155.367187c10.59375-.121094 19.289063 8.363281 19.417969 18.960938zm0 0"
          fill="#7d6599"/>
    <path d="m308.964844 328.652344c12.609375-9.605469 27.472656-15.804688 43.167968-18.007813 4.367188-.722656 8.835938.46875 12.269532 3.265625 5.609375 6.121094 8.726562 14.117188 8.738281 22.421875.039063 27.359375-9.238281 53.914063-26.304687 75.296875-10.671876 15.039063-27.367188 24.675782-45.726563 26.394532l-12.800781 37.078124h.089844c3.386718.527344 6.808593.792969 10.238281.792969 31.089843-.75 60.042969-15.964843 78.300781-41.136719 22.683594-28.574218 34.699219-64.15625 33.988281-100.632812-.398437-18.527344-8.222656-36.117188-21.71875-48.816406-11.082031-9.546875-25.617187-14.082032-40.164062-12.535156-6.097657.53125-12.128907 1.65625-18.007813 3.351562h-.089844c-7.585937 2.140625-14.945312 5.007812-21.980468 8.566406zm0 0"
          fill="#3d324c"/>
    <g fill="#b49aca">
        <path d="m150.070312 388.414062c-4.875 0-8.828124-3.953124-8.828124-8.828124v-56.882813c0-4.878906 3.953124-8.828125 8.828124-8.828125s8.828126 3.949219 8.828126 8.828125v56.882813c0 4.875-3.953126 8.828124-8.828126 8.828124zm0 0"/>
        <path d="m158.898438 291.308594c0 4.878906-3.953126 8.828125-8.828126 8.828125s-8.828124-3.949219-8.828124-8.828125c0-4.875 3.953124-8.824219 8.828124-8.824219s8.828126 3.949219 8.828126 8.824219zm0 0"/>
    </g>
</svg>