<svg height="512pt" viewBox="-16 0 512 512.04236" width="512pt" xmlns="http://www.w3.org/2000/svg">
    <path d="m344.296875 343.6875v133.03125c0 19.5-15.808594 35.308594-35.308594 35.308594h-11.652343c-12.773438.011718-24.550782-6.875-30.808594-18.007813l-91.191406-161.898437-19.15625-33.894532-85.539063-151.835937v256.441406l-30.71875 108.84375h-.089844c-1.484375.253907-2.992187.371094-4.5.351563-9.367187.011718-18.355469-3.703125-24.980469-10.328125-6.625-6.625-10.3437495-15.613281-10.3320308-24.980469v-441.378906c0-19.503906 15.8124998-35.3125002 35.3124998-35.3125002h13.242188c12.769531-.0078126 24.550781 6.8789062 30.808593 18.0078122l122.171876 216.71875 19.066406 33.898438 53.054687 94.191406v-327.503906c-.011719-14.289063 8.59375-27.179688 21.792969-32.648438 13.203125-5.472656 28.402344-2.445312 38.5 7.664063 1.894531 1.917969 3.550781 4.050781 4.945312 6.359375zm0 0"
          fill="#f29c1f"/>
    <path d="m277.800781 188.558594-57.179687 80.09375-45.285156 63.46875-43.785157 61.351562-28.6875-20.476562 53.316407-74.769532 45.375-63.472656 39.195312-54.90625zm0 0"
          fill="#bdc3c7"/>
    <path d="m395.496094 39.3125c-4.023438 19.640625-11.175782 38.507812-21.183594 55.878906v.085938c-.621094 1.148437-1.324219 2.296875-1.945312 3.445312-5.453126 9.675782-11.4375 19.046875-17.917969 28.070313-4.324219 6.089843-8.828125 11.917969-13.332031 17.390625-4.941407 6.089844-10.0625 11.742187-15.179688 16.949218-5.769531 6.132813-11.933594 11.882813-18.453125 17.214844-10.964844 9.957032-23.9375 17.453125-38.046875 21.980469-6.59375 2.277344-13.859375 1.53125-19.859375-2.03125-.089844-.089844-.265625-.175781-.355469-.265625-5.410156-4.480469-8.519531-11.160156-8.472656-18.183594-2.117188-24.011718 13.503906-64.53125 41.929688-104.34375 38.222656-53.582031 85.273437-85.539062 105.136718-71.324218.796875.703124 1.589844 1.320312 2.382813 2.027343 6.179687 6.445313 7.769531 18.1875 5.296875 33.105469zm0 0"
          fill="#4482c3"/>
    <path d="m452.964844 80.359375c-12.617188-1.632813-25.421875-1.125-37.871094 1.5-5.347656-14.699219-11.902344-28.929687-19.597656-42.546875 2.472656-14.917969.882812-26.660156-5.296875-33.105469 25.136719 20.816407 46.386719 45.921875 62.765625 74.152344zm0 0"
          fill="#b0d3f0"/>
    <path d="m478.566406 157.691406c-15.089844-5.765625-30.789062-9.792968-46.789062-12.007812-3.441406-21.773438-9.03125-43.152344-16.683594-63.824219 12.449219-2.625 25.253906-3.132813 37.871094-1.5 13.730468 23.757813 22.441406 50.074219 25.601562 77.332031zm0 0"
          fill="#90bae1"/>
    <path d="m479.625 171.019531c.933594 24.492188-2.292969 48.96875-9.535156 72.386719h-.089844c-10.671875-6.464844-21.726562-12.269531-33.101562-17.390625.765624-26.878906-.949219-53.769531-5.121094-80.332031 16 2.214844 31.699218 6.242187 46.789062 12.007812.527344 4.410156.882813 8.824219 1.058594 13.328125zm0 0"
          fill="#b0d3f0"/>
    <path d="m332.113281 238.636719c-12.605469-4.355469-25.617187-7.429688-38.839843-9.179688l-.089844.089844c-6.175782-5.210937-12.886719-10.0625-19.507813-14.65625-3.265625-2.292969-6.621093-4.5-9.886719-6.707031l.089844-.089844 5.558594-7.765625c14.109375-4.527344 27.082031-12.023437 38.046875-21.980469l.089844.085938c5.648437 1.765625 13.769531 4.238281 23.304687 7.328125 2.140625 17.542969 2.554688 35.253906 1.234375 52.875zm0 0"
          fill="#b0d3f0"/>
    <path d="m470.089844 243.40625c-5.980469 19.996094-15.421875 38.789062-27.894532 55.523438-3.796874-2.824219-7.59375-5.558594-11.300781-8.121094 3.433594-21.441406 5.441407-43.085938 6.003907-64.792969 11.375 5.121094 22.429687 10.925781 33.101562 17.390625zm0 0"
          fill="#90bae1"/>
    <path d="m442.195312 298.929688c-4.875 6.550781-10.339843 12.640624-16.332031 18.1875 1.148438-5.386719 3.003907-14.390626 5.03125-26.308594 3.707031 2.5625 7.503907 5.296875 11.300781 8.121094zm0 0"
          fill="#b0d3f0"/>
    <path d="m430.894531 290.808594c-2.027343 11.917968-3.882812 20.921875-5.03125 26.308594-7.613281 7.207031-16.164062 13.355468-25.421875 18.273437-10.5625-9.203125-22.074218-17.253906-34.339844-24.011719 6.21875-16.726562 11.03125-33.941406 14.386719-51.464844 17.441407 9.21875 34.277344 19.539063 50.40625 30.894532zm0 0"
          fill="#90bae1"/>
    <path d="m332.113281 238.636719c-.835937 12.601562-2.484375 25.132812-4.941406 37.519531l-1.414063.265625c-.785156-4.179687-2.089843-8.242187-3.882812-12.09375-6.808594-13.617187-16.617188-25.507813-28.691406-34.78125l.089844-.089844c13.222656 1.75 26.234374 4.824219 38.839843 9.179688zm0 0"
          fill="#90bae1"/>
    <path d="m366.101562 311.378906c-4.210937 11.589844-9.132812 22.914063-14.742187 33.898438-2.390625-.351563-4.75-.882813-7.0625-1.589844-6.722656-1.859375-13.015625-5.007812-18.539063-9.269531-4.410156-3.089844-7.449218-7.777344-8.472656-13.066407-1.414062-9.796874 6.089844-17.652343 8.296875-26.65625.160157-.671874.277344-1.347656.355469-2.03125 13.871094 5.140626 27.304688 11.398438 40.164062 18.714844zm0 0"
          fill="#90bae1"/>
    <path d="m400.441406 335.390625c-3.851562 2.128906-7.832031 4.015625-11.917968 5.648437-11.765626 4.785157-24.621094 6.25-37.164063 4.238282 5.609375-10.984375 10.53125-22.308594 14.742187-33.898438 12.265626 6.757813 23.777344 14.808594 34.339844 24.011719zm0 0"
          fill="#b0d3f0"/>
    <path d="m415.09375 81.859375c-14.0625 2.863281-27.746094 7.335937-40.78125 13.332031 10.007812-17.371094 17.160156-36.238281 21.183594-55.878906 7.695312 13.617188 14.25 27.847656 19.597656 42.546875zm0 0"
          fill="#90bae1"/>
    <path d="m431.777344 145.683594c-16.109375-2.296875-32.367188-3.417969-48.640625-3.355469-2.207031-14.417969-5.300781-28.6875-9.265625-42.722656l-1.503906-.882813c.621093-1.148437 1.324218-2.296875 1.945312-3.445312v-.085938c13.035156-5.996094 26.71875-10.46875 40.78125-13.332031 7.652344 20.671875 13.242188 42.050781 16.683594 63.824219zm0 0"
          fill="#b0d3f0"/>
    <path d="m436.898438 226.015625c-.5625 21.707031-2.570313 43.351563-6.003907 64.792969-16.128906-11.355469-32.964843-21.675782-50.40625-30.894532 3.601563-18.042968 5.726563-36.347656 6.359375-54.730468 16.859375 6.441406 34.335938 13.417968 50.050782 20.832031zm0 0"
          fill="#b0d3f0"/>
    <g fill="#90bae1">
        <path d="m383.136719 142.328125c-14.027344-.113281-28.054688.507813-42.019531 1.855469 4.503906-5.472656 9.007812-11.300782 13.332031-17.390625 6.480469-9.023438 12.464843-18.394531 17.917969-28.070313l1.503906.882813c3.964844 14.035156 7.058594 28.304687 9.265625 42.722656zm0 0"/>
        <path d="m436.898438 226.015625c-15.714844-7.414063-33.191407-14.390625-50.050782-20.832031.714844-21.023438-.527344-42.0625-3.710937-62.855469 16.273437-.0625 32.53125 1.058594 48.640625 3.355469 4.171875 26.5625 5.886718 53.453125 5.121094 80.332031zm0 0"/>
        <path d="m330.878906 185.761719c-9.535156-3.089844-17.65625-5.5625-23.304687-7.328125l-.089844-.085938c6.519531-5.332031 12.683594-11.082031 18.453125-17.214844l.085938.085938c2.238281 8.046875 3.859374 16.25 4.855468 24.542969zm0 0"/>
        <path d="m386.847656 205.183594c-.632812 18.382812-2.757812 36.6875-6.359375 54.730468-15.523437-8.382812-31.703125-15.5-48.375-21.277343 1.320313-17.621094.90625-35.332031-1.234375-52.875 15.625 5.03125 35.488282 11.738281 55.96875 19.421875zm0 0"/>
    </g>
    <path d="m386.847656 205.183594c-20.480468-7.683594-40.34375-14.390625-55.96875-19.421875-.996094-8.292969-2.617187-16.496094-4.855468-24.542969l-.085938-.085938c5.117188-5.207031 10.238281-10.859374 15.179688-16.949218 13.964843-1.347656 27.992187-1.96875 42.019531-1.855469 3.183593 20.792969 4.425781 41.832031 3.710937 62.855469zm0 0"
          fill="#b0d3f0"/>
    <path d="m380.488281 259.914062c-3.355469 17.523438-8.167969 34.738282-14.386719 51.464844-12.859374-7.316406-26.292968-13.574218-40.164062-18.714844.953125-5.378906.894531-10.886718-.179688-16.242187l1.414063-.265625c2.457031-12.386719 4.105469-24.917969 4.941406-37.519531 16.671875 5.777343 32.851563 12.894531 48.375 21.277343zm0 0"
          fill="#b0d3f0"/>
    <path d="m121.09375 377.765625c11.90625 8.496094 14.664062 25.035156 6.167969 36.941406l-61.546875 86.214844c-8.5 11.90625-25.039063 14.664063-36.941406 6.167969-11.90625-8.496094-14.664063-25.035156-6.167969-36.941406l61.546875-86.214844c8.5-11.90625 25.039062-14.667969 36.941406-6.167969zm0 0"
          fill="#285680"/>
</svg>