<svg height="512pt" viewBox="0 0 512 512.17111" width="512pt" xmlns="http://www.w3.org/2000/svg">
    <path d="m267.472656 486.9375c-54.542968 32.726562-122.472656 33.582031-177.824218 2.242188-55.347657-31.339844-89.5625005-90.03125-89.5625005-153.636719v-158.894531c-.0429687-90.773438 68.7500005-166.785157 159.0742185-175.773438 90.328125-8.984375 172.746094 51.988281 190.585938 140.992188l-69.207032 14.121093c-10.617187-53.445312-60.050781-90.117187-114.28125-84.777343-54.226562 5.335937-95.558593 50.945312-95.550781 105.4375v158.894531c-.003906 35.210937 17.484375 68.121093 46.667969 87.816406 29.183594 19.699219 66.246094 23.609375 98.898438 10.433594zm0 0"
          fill="#955ba5"/>
    <path d="m410.566406 205.070312c12.621094 4.839844 24.550782 11.308594 35.488282 19.246094 56.667968 40.792969 80.066406 113.800782 57.664062 179.933594-22.398438 66.136719-85.347656 109.894531-155.144531 107.851562-69.792969-2.042968-130.078125-49.410156-148.574219-116.738281-18.492188-67.332031 9.132812-138.847656 68.089844-176.257812zm0 0"
          fill="#f29c1f"/>
    <path d="m386.8125 248.117188c-4.058594-21.5625-34.535156-33.921876-68.074219-27.609376-33.539062 6.3125-57.4375 28.90625-53.378906 50.46875 4.058594 21.558594 34.535156 33.921876 68.074219 27.609376 33.539062-6.3125 57.4375-28.910157 53.378906-50.46875zm0 0"
          fill="#f3d55b"/>
    <path d="m418.777344 194.300781s-.351563.617188-1.148438 1.765625c-5.542968-.089844-11.066406-.679687-16.507812-1.765625-44.136719-8.828125-44.136719-35.308593-194.207032 8.828125 0 0 70.621094-61.792968 132.414063-61.792968 35.015625-.898438 66.816406 20.300781 79.449219 52.964843zm0 0"
          fill="#527f72"/>
    <path d="m417.628906 196.066406c-17.734375 25.929688-46.890625 41.710938-78.300781 42.375-52.964844 0-61.792969-26.484375-132.414063-35.3125 150.070313-44.136718 150.070313-17.65625 194.207032-8.828125 5.441406 1.085938 10.964844 1.675781 16.507812 1.765625zm0 0"
          fill="#46b29d"/>
    <path d="m312.847656 476.785156c-1.058594-.003906-2.109375-.195312-3.097656-.566406-44.941406-17.082031-77.375-56.820312-85.109375-104.269531-.515625-4.789063 2.898437-9.105469 7.675781-9.707031 4.773438-.601563 9.152344 2.734374 9.839844 7.5 6.882812 40.957031 34.96875 75.191406 73.789062 89.953124 3.992188 1.5 6.339844 5.640626 5.578126 9.835938-.761719 4.195312-4.410157 7.25-8.675782 7.253906zm0 0"
          fill="#f3d55b"/>
    <path d="m242.226562 335.542969c0 4.875-3.953124 8.828125-8.828124 8.828125s-8.828126-3.953125-8.828126-8.828125 3.953126-8.828125 8.828126-8.828125 8.828124 3.953125 8.828124 8.828125zm0 0"
          fill="#f3d55b"/>
    <path d="m445.261719 273.75c-.949219-.003906-1.890625-.15625-2.789063-.457031l-26.484375-8.828125c-4.632812-1.542969-7.136719-6.550782-5.59375-11.179688 1.542969-4.632812 6.550781-7.136718 11.183594-5.59375l26.480469 8.828125c4.15625 1.335938 6.714844 5.507813 6.011718 9.820313-.699218 4.308594-4.445312 7.457031-8.808593 7.410156zm0 0"
          fill="#527f72"/>
    <path d="m436.433594 282.578125c-3.796875-.003906-7.167969-2.433594-8.367188-6.039063l-8.828125-26.480468c-1-2.996094-.324219-6.300782 1.773438-8.660156 2.09375-2.363282 5.292969-3.429688 8.386719-2.796876 3.09375.636719 5.613281 2.871094 6.609374 5.867188l8.828126 26.484375c.902343 2.695313.449218 5.664063-1.21875 7.96875-1.664063 2.304687-4.339844 3.664063-7.183594 3.65625zm0 0"
          fill="#527f72"/>
    <path d="m436.441406 264.921875c-.59375 0-1.183594-.058594-1.765625-.175781-4.78125-.957032-7.878906-5.609375-6.921875-10.390625 4.179688-18.625 10.585938-36.675781 19.078125-53.769531-9.480469 3.050781-19.402343 4.507812-29.359375 4.308593-3.15625-.023437-6.054687-1.730469-7.609375-4.472656-1.554687-2.746094-1.53125-6.109375.070313-8.828125 1.597656-2.71875 4.523437-4.378906 7.679687-4.355469h1.332031c17.050782.269531 33.605469-5.722656 46.53125-16.839843 3.257813-3.371094 8.582032-3.601563 12.125-.53125 3.542969 3.070312 4.066407 8.371093 1.195313 12.074218-16.074219 22.871094-27.527344 48.660156-33.710937 75.917969-.839844 4.109375-4.453126 7.058594-8.644532 7.0625zm0 0"
          fill="#46b29d"/>
</svg>