<svg height="512pt" viewBox="0 0 512.00016 512" width="512pt" xmlns="http://www.w3.org/2000/svg">
    <path d="m301.375 51.730469c-33.070312-33.164063-77.992188-51.7812502-124.824219-51.730469h-141.242187c-19.5 0-35.308594 15.808594-35.308594 35.308594v441.382812c0 19.5 15.808594 35.308594 35.308594 35.308594 19.503906 0 35.3125-15.808594 35.3125-35.308594v-123.585937h105.929687c8.269531-.007813 16.53125-.597657 24.71875-1.765625l101.339844-51.289063c67.804687-69.085937 67.253906-179.914062-1.234375-248.320312zm-49.878906 199.769531c-19.859375 19.890625-46.832032 31.042969-74.945313 30.984375h-105.929687v-211.863281h105.929687c42.84375.027344 81.457031 25.839844 97.855469 65.417968 16.398438 39.582032 7.359375 85.140626-22.910156 115.460938zm0 0"
          fill="#4482c3"/>
    <path d="m350.207031 307.464844c-4.816406 0-8.746093-3.859375-8.828125-8.675782.082032-15.5625-2.222656-31.042968-6.832031-45.90625-2.710937-4.636718-8.21875-6.84375-13.382813-5.355468-1.578124.359375-6.707031 1.871094-6.742187 6.398437.078125 2.371094-.839844 4.667969-2.527344 6.332031-1.691406 1.664063-4.003906 2.542969-6.371093 2.425782-2.34375-.019532-4.578126-.96875-6.222657-2.636719-1.640625-1.667969-2.554687-3.921875-2.535156-6.261719.3125-11.734375 8.914063-21.589844 20.496094-23.480468 13.175781-3.390626 26.945312 2.773437 33.195312 14.855468 1.101563 2.339844 2.027344 4.757813 2.761719 7.238282 3.480469-5.125 8.335938-9.167969 14.007812-11.660157 2.90625-1.226562 6.246094-.808593 8.761719 1.097657 2.511719 1.902343 3.820313 5.003906 3.429688 8.132812-.394531 3.128906-2.425781 5.8125-5.332031 7.039062-12.808594 5.402344-15.246094 32.441407-15.085938 41.488282.039062 2.339844-.851562 4.601562-2.480469 6.285156-1.625 1.683594-3.855469 2.652344-6.195312 2.691406zm0 0"
          fill="#527f72"/>
    <path d="m411.964844 509.351562c6.332031.796876 12.730468.875 19.078125.238282 44.808593-3.890625 81.046875-49.511719 80.957031-103.566406.089844-54.050782-36.148438-99.671876-80.957031-103.5625-6.710938-.792969-13.484375.859374-19.078125 4.652343 0 65.179688-13.242188 130.355469-13.242188 195.53125 0 2.214844 7.277344 4.675781 13.242188 6.707031zm0 0"
          fill="#f29c1f"/>
    <path d="m295.308594 305.65625c-8.296875-3.003906-17.164063-4.105469-25.945313-3.222656-44.816406 3.894531-81.042969 49.511718-80.957031 103.566406-.085938 54.050781 36.140625 99.671875 80.957031 103.5625 6.347657.636719 12.75.558594 19.078125-.238281 4.519532-1.703125 13.242188-5.199219 13.242188-7.800781 0-66.324219-6.375-129.582032-6.375-195.867188zm0 0"
          fill="#f29c1f"/>
    <path d="m369.621094 310.324219c7.140625-5.574219 16.136718-8.214844 25.15625-7.378907 5.839844.429688 11.605468 1.578126 17.160156 3.417969 31.949219 9.707031 55.4375 53.980469 55.421875 99.644531-.019531 45.664063-23.472656 89.953126-55.421875 99.644532-5.554688 1.839844-11.320312 2.988281-17.160156 3.417968-8.800782-.707031-17.367188-3.222656-25.15625-7.378906zm0 0"
          fill="#e57e25"/>
    <path d="m330.789062 506.085938c-8.097656 2.691406-16.660156 3.703124-25.160156 2.964843-5.839844-.429687-11.601562-1.574219-17.160156-3.414062-31.949219-9.710938-55.445312-53.972657-55.421875-99.648438.027344-45.671875 23.472656-89.960937 55.421875-99.671875 5.558594-1.839844 11.320312-2.984375 17.160156-3.414062 8.878906-.707032 22.785156 4.527344 25.160156 11.792968 0 60.484376 17.652344 120.9375 17.652344 181.449219 0 3.339844-12.058594 6.226563-17.652344 9.941407zm0 0"
          fill="#e57e25"/>
    <path d="m294.417969 406c0 53.449219 24.839843 102.195312 55.789062 101.613281 30.949219.582031 55.808594-48.164062 55.792969-101.613281-.019531-53.453125-24.84375-102.199219-55.792969-101.617188-30.949219-.582031-55.816406 48.164063-55.789062 101.617188zm0 0"
          fill="#f29c1f"/>
    <path d="m356.140625 467.941406c-2.878906 0-5.578125-1.40625-7.226563-3.765625-1.652343-2.359375-2.046874-5.375-1.0625-8.082031 12.640626-31.789062 12.777344-67.183594.386719-99.070312-2.039062-4.34375-.238281-9.519532 4.054688-11.65625 4.296875-2.140626 9.515625-.457032 11.746093 3.789062.980469 1.960938 23.738282 48.765625.398438 112.996094-1.273438 3.480468-4.589844 5.792968-8.296875 5.789062zm0 0"
          fill="#f3d55b"/>
</svg>