<svg height="512pt" viewBox="0 0 512 512" width="512pt" xmlns="http://www.w3.org/2000/svg">
    <path d="m203.035156 294.136719v-205.859375c.027344-9.738282 7.914063-17.628906 17.65625-17.65625h79.445313c19.503906 0 35.3125-15.808594 35.3125-35.3125 0-19.5-15.808594-35.308594-35.3125-35.308594h-264.828125c-19.5 0-35.308594 15.808594-35.308594 35.308594 0 19.503906 15.808594 35.3125 35.308594 35.3125h79.449218c9.738282.027344 17.625 7.917968 17.65625 17.65625v388.414062c0 19.5 15.808594 35.308594 35.308594 35.308594 19.503906 0 35.3125-15.808594 35.3125-35.308594zm0 0"
          fill="#f18d46"/>
    <path d="m212.496094 299.953125c-21.171875-11.222656-38.90625-27.972656-51.3125-48.472656-1.578125-2.6875-4.46875-4.328125-7.582032-4.308594h-25.953124c-3.1875-.023437-6.136719 1.667969-7.722657 4.429687-1.589843 2.757813-1.566406 6.160157.058594 8.902344 15.542969 26.316406 24.992187 55.785156 27.65625 86.234375 5.210937 58.625 25.273437 92.460938 64.925781 89.722657zm0 0"
          fill="#7d6599"/>
    <path d="m241.433594 256c-11.824219 12.328125-21.601563 26.46875-28.953125 41.886719-3.828125 8.09375-6.984375 16.484375-9.445313 25.089843-8.121094 28.726563-8.121094 59.148438 0 87.878907 2.429688 8.617187 5.589844 17.011719 9.445313 25.09375h.085937c7.207032 15.433593 16.933594 29.554687 28.78125 41.789062l225.542969.804688c59.902344-61.992188 60.175781-160.21875.617187-222.542969zm0 0"
          fill="#b49aca"/>
    <path d="m235.539062 382.332031c-4.875 0-8.828124-3.953125-8.828124-8.828125.007812-31.992187 11.0625-63 31.292968-87.78125 2-2.441406 5.148438-3.628906 8.261719-3.113281 3.113281.511719 5.714844 2.644531 6.828125 5.59375 1.113281 2.953125.566406 6.273437-1.433594 8.710937-17.769531 21.558594-27.425781 48.660157-27.292968 76.597657-.007813 4.871093-3.957032 8.820312-8.828126 8.820312zm0 0"
          fill="#ecf0f1"/>
    <path d="m244.964844 220.867188c23.195312-38.128907 64.929687-61.03125 109.550781-60.117188 44.851563-.925781 86.757813 22.25 109.816406 60.734375zm0 0"
          fill="#b49aca"/>
    <g fill="#7d6599">
        <path d="m381.863281 133.324219c0 15.128906-12.261719 27.390625-27.390625 27.390625s-27.394531-12.261719-27.394531-27.390625c0-15.128907 12.265625-27.394531 27.394531-27.394531s27.390625 12.265624 27.390625 27.394531zm0 0"/>
        <path d="m247.171875 220.691406h211.863281c9.75 0 17.65625 7.902344 17.65625 17.652344s-7.90625 17.65625-17.65625 17.65625h-211.863281c-9.75 0-17.65625-7.90625-17.65625-17.65625s7.90625-17.652344 17.65625-17.652344zm0 0"/>
        <path d="m247.171875 476.691406h211.863281c9.75 0 17.65625 7.902344 17.65625 17.652344s-7.90625 17.65625-17.65625 17.65625h-211.863281c-9.75 0-17.65625-7.90625-17.65625-17.65625s7.90625-17.652344 17.65625-17.652344zm0 0"/>
    </g>
</svg>