<svg height="512pt" viewBox="0 0 512 512.02882" width="512pt" xmlns="http://www.w3.org/2000/svg">
    <path d="m82.375 383.941406v.085938c1.289062 1.304687 2.644531 2.542968 4.0625 3.710937 33.71875 28.039063 83.777344 23.453125 111.84375-10.242187l1.5-1.851563-27.097656-22.511719-1.503906 1.765626c-15.710938 18.234374-43.132813 20.519531-61.644532 5.136718-18.515625-15.382812-21.289062-42.761718-6.238281-61.546875 2.984375-3.597656 4.414063-8.234375 3.972656-12.886719-.378906-4.6875-2.640625-9.019531-6.265625-12.003906-7.523437-6.203125-18.636718-5.179687-24.894531 2.292969-2.011719 2.390625-3.839844 4.929687-5.472656 7.59375 0 0-17.71875 68.367187 11.738281 100.457031zm0 0"
          fill="#802f34"/>
    <path d="m282.496094 276.332031v59.144531c-.027344 42.84375-25.839844 81.457032-65.417969 97.855469-39.578125 16.398438-85.140625 7.359375-115.457031-22.910156-7.78125-7.714844-14.277344-16.625-19.246094-26.394531v-.085938c-7.734375-14.984375-11.761719-31.601562-11.738281-48.464844v-300.136718c0-19.503906-15.8125-35.3125002-35.3125-35.3125002s-35.308594 15.8085942-35.308594 35.3125002v300.136718c0 97.507813 79.042969 176.550782 176.550781 176.550782 97.507813 0 176.550782-79.042969 176.550782-176.550782v-300.136718c.011718-14.289063-8.589844-27.179688-21.792969-32.648438-13.203125-5.472656-28.398438-2.445312-38.5 7.664063-5.746094 5.808593-9.328125 13.410156-10.152344 21.539062zm0 0"
          fill="#4fba6f"/>
    <path d="m416.171875 87.953125c-67.722656-56.339844-192.820313-30.308594-263.238281 22.171875l-5.382813-2.453125c-16.464843-7.515625-30.328125-19.746094-39.839843-35.140625-2.304688-1.886719-3.511719-4.800781-3.214844-7.765625.292968-2.960937 2.050781-5.582031 4.679687-6.976563 79.023438-41.421874 217.953125-43.890624 306.996094 30.164063zm0 0"
          fill="#ecf0f1"/>
    <path d="m487.519531 388.441406c-16.867187-6.542968-31.414062-17.9375-41.800781-32.75l-3.398438-4.84375c38.769532-78.777344 41.585938-206.566406-26.148437-262.878906 89.046875 74.0625 111.910156 211.121094 85.574219 296.34375-.890625 2.839844-3.144532 5.046875-6.007813 5.878906-2.859375.828125-5.945312.171875-8.21875-1.75zm0 0"
          fill="#ecf0f1"/>
    <path d="m416.171875 87.953125c-25.785156-21.453125-112.992187 36.078125-173.65625 96.679687l-4.332031-1.871093c-34.976563-15.242188-64.644532-40.515625-85.25-72.625 70.417968-52.492188 195.515625-78.523438 263.238281-22.183594zm0 0"
          fill="#cc4b4c"/>
    <path d="m442.320312 350.828125c-35.328124-14.417969-65.582031-38.996094-86.933593-70.621094l-2.648438-3.917969c48.550781-70.621093 89.230469-166.914062 63.433594-188.363281 67.734375 56.371094 64.945313 184.125 26.148437 262.902344zm0 0"
          fill="#cc4b4c"/>
    <path d="m352.738281 276.332031c-46.496093-16.445312-85.589843-48.964843-110.222656-91.691406 60.628906-60.601563 147.871094-118.140625 173.65625-96.6875 25.785156 21.449219-14.890625 117.707031-63.433594 188.378906zm0 0"
          fill="#ecf0f1"/>
    <path d="m402.09375 77.277344 23.082031-27.753906c6.25-7.46875 17.363281-8.492188 24.867188-2.285157 7.433593 6.273438 8.449219 17.347657 2.289062 24.867188l-23.085937 27.753906zm0 0"
          fill="#bdc3c7"/>
    <path d="m192.210938 329.605469 84.113281-101.125 27.144531 22.582031-84.109375 101.121094zm0 0" fill="#95a5a5"/>
    <path d="m200.515625 333.417969 13.574219 11.289062c7.496094 6.238281 8.515625 17.367188 2.28125 24.867188-6.234375 7.496093-17.367188 8.515625-24.863282 2.28125l-13.574218-11.289063c-7.496094-6.234375-8.515625-17.367187-2.28125-24.863281s17.367187-8.519531 24.863281-2.285156zm0 0"
          fill="#cc4b4c"/>
</svg>