<svg height="512pt" viewBox="0 0 512.11468 512" width="512pt" xmlns="http://www.w3.org/2000/svg">
    <path d="m293.445312 227.46875-4.855468 15.183594-78.390625 244.878906c-4.675781 14.628906-18.273438 24.558594-33.632813 24.558594s-28.957031-9.929688-33.632812-24.558594l-141.242188-441.378906c-5.949218-18.574219 4.289063-38.457032 22.863282-44.402344 18.574218-5.949219 38.457031 4.289062 44.402343 22.863281l107.609375 336.332031 107.609375-336.332031c5.945313-18.574219 25.828125-28.8125 44.402344-22.863281 18.574219 5.945312 28.808594 25.828125 22.863281 44.402344l-39.195312 122.613281zm0 0"
          fill="#e64c3c"/>
    <path d="m432.566406 141.3125c0 9.75-7.90625 17.65625-17.65625 17.65625s-17.65625-7.90625-17.65625-17.65625 7.90625-17.65625 17.65625-17.65625 17.65625 7.90625 17.65625 17.65625zm0 0"
          fill="#e57e25"/>
    <path d="m512.015625 203.105469c0 14.625-11.859375 26.484375-26.484375 26.484375s-26.480469-11.859375-26.480469-26.484375 11.855469-26.480469 26.480469-26.480469 26.484375 11.855469 26.484375 26.480469zm0 0"
          fill="#f0c419"/>
    <path d="m335.460938 198.691406c0 17.066406-13.832032 30.898438-30.894532 30.898438s-30.898437-13.832032-30.898437-30.898438c0-17.0625 13.835937-30.894531 30.898437-30.894531s30.894532 13.832031 30.894532 30.894531zm0 0"
          fill="#f0c419"/>
    <path d="m370.773438 264.898438c-3.34375.007812-6.402344-1.875-7.902344-4.863282-2.261719-5.039062-5.75-9.4375-10.140625-12.789062-2.324219-.003906-4.546875-.941406-6.171875-2.601563-1.625-1.660156-2.511719-3.90625-2.460938-6.226562.082032-4.917969 4.101563-8.855469 9.019532-8.828125 13.242187 0 22.953124 17.25 25.554687 22.535156 1.371094 2.738281 1.222656 5.988281-.386719 8.589844-1.609375 2.601562-4.453125 4.1875-7.511718 4.183594zm0 0"
          fill="#e57e25"/>
    <path d="m423.738281 264.898438c-3.058593 0-5.898437-1.585938-7.503906-4.1875-1.609375-2.601563-1.753906-5.847657-.386719-8.585938 2.59375-5.285156 12.304688-22.535156 25.546875-22.535156 4.875 0 8.828125 3.953125 8.828125 8.828125s-3.953125 8.828125-8.828125 8.828125c-4.15625 3.492187-7.492187 7.859375-9.765625 12.789062-1.496094 2.984375-4.550781 4.867188-7.890625 4.863282zm0 0"
          fill="#e57e25"/>
    <path d="m397.253906 264.898438c-4.875 0-8.824218-3.953126-8.824218-8.828126 0-24.441406 1.480468-66.929687 11.414062-76.859374 3.460938-3.347657 8.96875-3.296876 12.375.105468 3.402344 3.40625 3.453125 8.910156.105469 12.375-3.644531 5.234375-6.242188 37.605469-6.242188 64.378906 0 4.875-3.949219 8.828126-8.828125 8.828126zm0 0"
          fill="#f0c419"/>
    <path d="m462.667969 358.648438c-5.730469-4.496094-12.753907-7.035157-20.039063-7.238282-7.125.535156-12.652344 6.445313-12.710937 13.59375.953125 8.914063 1.425781 17.871094 1.414062 26.835938-.511719 3.863281-2.316406 7.441406-5.121093 10.152344-4.210938 3.429687-9.921876 4.367187-15.007813 2.472656-6.835937-2.734375-12.109375-8.359375-14.386719-15.359375-1.585937-6.453125-3.835937-12.726563-6.710937-18.714844-2.035157-3.910156-5.667969-6.742187-9.953125-7.761719-4.289063-1.015625-8.808594-.117187-12.378906 2.464844-6.621094 4.5-10.769532 12.355469-18.363282 15.535156-8.121094 2.789063-16.839844 3.339844-25.246094 1.589844l-1.5-.53125c4.765626-12.710938 9.53125-25.421875 14.300782-38.222656 5.382812-14.390625 10.769531-28.867188 16.152344-43.253906h88.277343c3.175781 8.648437 6.265625 17.300781 9.445313 25.953124 3.882812 10.855469 7.855468 21.625 11.828125 32.484376zm0 0"
          fill="#d25627"/>
    <path d="m510.515625 504.921875c-5.230469 2.882813-11.167969 4.230469-17.128906 3.882813-11.195313 1.878906-22.347657-3.589844-27.71875-13.59375l2.207031 5.121093s-44.136719 26.480469-88.273438 0c-16.195312 10.160157-36.773437 10.160157-52.964843 0l7.324219-19.421875c-1.410157 3.53125-2.910157 6.972656-4.5 10.328125-3.144532 7.933594-9.347657 14.265625-17.214844 17.566407-7.1875 1.988281-14.851563 1.265624-21.539063-2.03125-3.441406-1.082032-6.734375-2.59375-9.796875-4.5-3.269531-2.472657-.882812-6.445313.261719-9.535157 7.859375-21.007812 15.714844-42.105469 23.570313-63.117187 6.003906-15.976563 11.917968-31.953125 17.921874-47.933594l1.5.53125c8.40625 1.75 17.125 1.199219 25.246094-1.589844 7.59375-3.179687 11.742188-11.035156 18.363282-15.535156 3.570312-2.582031 8.089843-3.480469 12.378906-2.464844 4.285156 1.019532 7.917968 3.851563 9.953125 7.761719 2.875 5.988281 5.125 12.261719 6.710937 18.714844 2.277344 7 7.550782 12.625 14.386719 15.359375 5.085937 1.894531 10.796875.957031 15.007813-2.472656 2.804687-2.710938 4.609374-6.289063 5.121093-10.152344.011719-8.964844-.460937-17.921875-1.414062-26.835938.058593-7.148437 5.585937-13.058594 12.710937-13.59375 7.285156.203125 14.308594 2.742188 20.039063 7.238282 3.265625 8.914062 6.445312 17.832031 9.710937 26.746093 7.769532 21.363281 15.535156 48.730469 23.304688 70.09375 5.03125 13.679688 9.976562 27.453125 15.007812 41.136719.96875 2.824219 2.734375 5.914062-.175781 8.296875zm0 0"
          fill="#cb8252"/>
    <path d="m441.394531 300.210938c0-9.75-19.761719-17.65625-44.140625-17.65625-24.375 0-44.136718 7.90625-44.136718 17.65625s19.761718 17.652343 44.136718 17.652343c24.378906 0 44.140625-7.902343 44.140625-17.652343zm0 0"
          fill="#c03a2b"/>
</svg>