<svg height="512pt" viewBox="0 -4 512.00455 512" width="512pt" xmlns="http://www.w3.org/2000/svg">
    <path d="m421.667969 8.671875c-5.273438-4.828125-11.976563-7.8125-19.09375-8.503906-9.746094-.953125-19.441407 2.25-26.699219 8.828125-7.253906 6.578125-11.394531 15.917968-11.394531 25.710937v317.960938l-105.960938-161.0625-12.582031-19.09375c-6.421875-9.746094-17.3125-15.609375-28.984375-15.609375s-22.5625 5.863281-28.984375 15.609375l-12.582031 19.09375-105.957031 161.0625v-317.960938c-.003907-9.792969-4.144532-19.132812-11.398438-25.710937s-16.953125-9.78125-26.699219-8.828125c-18.109375 2.242187-31.617187 17.769531-31.32812475 36.011719v432.425781c.00390625 15.324219 10.05468775 28.828125 24.73437475 33.234375 3.230469 1 6.597657 1.496094 9.976563 1.476562 11.671875-.011718 22.558594-5.878906 28.984375-15.621094l153.253906-232.914062 153.253906 232.914062c6.425781 9.742188 17.3125 15.609376 28.984375 15.621094 3.382813.019532 6.746094-.476562 9.980469-1.476562 9.070313-2.695313 16.632813-9.003906 20.914063-17.441406zm0 0"
          fill="#cc66a1"/>
    <path d="m417.414062 299.90625 6.769532 168.699219c.523437 14.574219 12.488281 26.121093 27.074218 26.121093 14.585938 0 26.554688-11.546874 27.078126-26.121093l6.765624-168.699219zm0 0"
          fill="#35495e"/>
    <path d="m416.71875 221.457031 6.421875-160.71875h56.234375l6.421875 160.71875zm0 0" fill="#35495e"/>
    <g fill="#2c3e50">
        <path d="m459.9375 347.113281c0 4.792969-3.886719 8.675781-8.679688 8.675781-4.792968 0-8.675781-3.882812-8.675781-8.675781s3.882813-8.679687 8.675781-8.679687c4.792969 0 8.679688 3.886718 8.679688 8.679687zm0 0"/>
        <path d="m459.9375 373.148438c0 4.792968-3.886719 8.675781-8.679688 8.675781-4.792968 0-8.675781-3.882813-8.675781-8.675781 0-4.792969 3.882813-8.679688 8.675781-8.679688 4.792969 0 8.679688 3.886719 8.679688 8.679688zm0 0"/>
        <path d="m459.9375 399.179688c0 4.792968-3.886719 8.679687-8.679688 8.679687-4.792968 0-8.675781-3.886719-8.675781-8.679687 0-4.792969 3.882813-8.675782 8.675781-8.675782 4.792969 0 8.679688 3.882813 8.679688 8.675782zm0 0"/>
        <path d="m459.9375 425.214844c0 4.792968-3.886719 8.675781-8.679688 8.675781-4.792968 0-8.675781-3.882813-8.675781-8.675781 0-4.792969 3.882813-8.679688 8.675781-8.679688 4.792969 0 8.679688 3.886719 8.679688 8.679688zm0 0"/>
        <path d="m459.9375 451.25c0 4.792969-3.886719 8.675781-8.679688 8.675781-4.792968 0-8.675781-3.882812-8.675781-8.675781s3.882813-8.679688 8.675781-8.679688c4.792969 0 8.679688 3.886719 8.679688 8.679688zm0 0"/>
    </g>
    <path d="m425.226562 8.671875h52.066407c4.792969 0 8.675781 3.886719 8.675781 8.679687v34.710938c0 4.792969-3.882812 8.675781-8.675781 8.675781h-52.066407c-4.792968 0-8.679687-3.882812-8.679687-8.675781v-34.710938c0-4.792968 3.886719-8.679687 8.679687-8.679687zm0 0"
          fill="#547580"/>
    <path d="m502.980469 254.34375c-50.765625-1.648438-76.539063 22.476562-89.125 42.175781-15.8125-16.324219-19.214844-41.019531-8.394531-61.007812 10.816406-19.992188 33.347656-30.65625 55.664062-26.34375 22.316406 4.308593 39.257812 22.597656 41.855469 45.175781zm0 0"
          fill="#b0d3f0"/>
    <path d="m503.328125 260.332031c-.015625 21.207031-12.890625 40.28125-32.546875 48.234375-19.65625 7.949219-42.171875 3.1875-56.925781-12.046875 12.585937-19.699219 38.359375-43.824219 89.125-42.175781.246093 1.988281.359375 3.988281.347656 5.988281zm0 0"
          fill="#90bae1"/>
    <path d="m451.257812 321.078125c-33.546874 0-60.746093-27.195313-60.746093-60.746094 0-33.546875 27.199219-60.746093 60.746093-60.746093 33.550782 0 60.746094 27.199218 60.746094 60.746093-.039062 33.535157-27.210937 60.707031-60.746094 60.746094zm0-104.132813c-23.960937 0-43.390624 19.425782-43.390624 43.386719 0 23.964844 19.429687 43.390625 43.390624 43.390625 23.964844 0 43.390626-19.425781 43.390626-43.390625-.027344-23.949219-19.4375-43.359375-43.390626-43.386719zm0 0"
          fill="#547580"/>
    <path d="m468.613281 269.011719h-17.355469c-4.792968 0-8.675781-3.886719-8.675781-8.679688v-17.355469c0-4.792968 3.882813-8.675781 8.675781-8.675781 4.792969 0 8.679688 3.882813 8.679688 8.675781v8.679688h8.675781c4.792969 0 8.679688 3.882812 8.679688 8.675781s-3.886719 8.679688-8.679688 8.679688zm0 0"
          fill="#7f8c8d"/>
</svg>