<svg height="512pt" viewBox="0 0 512.01606 512" width="512pt" xmlns="http://www.w3.org/2000/svg">
    <path d="m317.808594 455.144531c3.902344 6.640625 5.972656 14.195313 6.003906 21.894531.378906 12.382813-5.925781 24.011719-16.507812 30.453126-18.703126 9.195312-41.320313 1.589843-50.671876-17.035157l-94.71875-164.105469-94.71875 164.105469c-9.351562 18.625-31.96875 26.230469-50.671874 17.035157-10.582032-6.441407-16.886719-18.070313-16.507813-30.453126.03125-7.699218 2.101563-15.253906 6.003906-21.894531l115.109375-199.414062-115.109375-199.503907c-3.902343-6.636718-5.972656-14.191406-6.003906-21.890624-.378906-12.382813 5.925781-24.011719 16.507813-30.457032 18.707031-9.140625 41.289062-1.546875 50.671874 17.039063l94.71875 164.105469 94.71875-164.105469c9.382813-18.585938 31.964844-26.179688 50.671876-17.039063 10.582031 6.445313 16.886718 18.074219 16.507812 30.457032-.03125 7.699218-2.101562 15.253906-6.003906 21.890624l-115.109375 199.503907zm0 0"
          fill="#955ba5"/>
    <path d="m313.394531 167.367188c12.1875 0 22.070313 9.878906 22.070313 22.070312v132.410156c0 12.191406-9.882813 22.070313-22.070313 22.070313s-22.066406-9.878907-22.066406-22.070313v-132.410156c0-12.191406 9.878906-22.070312 22.066406-22.070312zm0 0"
          fill="#cc4b4c"/>
    <path d="m357.535156 176.195312c12.1875 0 22.066406 9.878907 22.066406 22.066407v114.761719c0 12.1875-9.878906 22.066406-22.066406 22.066406-12.191406 0-22.070312-9.878906-22.070312-22.066406v-114.761719c0-12.1875 9.878906-22.066407 22.070312-22.066407zm0 0"
          fill="#802f34"/>
    <path d="m401.671875 185.023438c12.1875 0 22.066406 9.878906 22.066406 22.066406v97.105468c0 12.1875-9.878906 22.066407-22.066406 22.066407s-22.070313-9.878907-22.070313-22.066407v-97.105468c0-12.1875 9.882813-22.066406 22.070313-22.066406zm0 0"
          fill="#cc4b4c"/>
    <path d="m445.808594 193.847656c12.1875 0 22.070312 9.882813 22.070312 22.070313v79.449219c0 12.1875-9.882812 22.070312-22.070312 22.070312s-22.070313-9.882812-22.070313-22.070312v-79.449219c0-12.1875 9.882813-22.070313 22.070313-22.070313zm0 0"
          fill="#802f34"/>
    <path d="m489.945312 202.675781c12.191407 0 22.070313 9.882813 22.070313 22.070313v61.792968c0 12.1875-9.878906 22.070313-22.070313 22.070313-12.1875 0-22.066406-9.882813-22.066406-22.070313v-61.792968c0-12.1875 9.878906-22.070313 22.066406-22.070313zm0 0"
          fill="#cc4b4c"/>
    <path d="m344.292969 405.710938c-4.519531.003906-8.308594-3.40625-8.785157-7.898438-.472656-4.492188 2.519532-8.621094 6.9375-9.5625l115.644532-24.804688c4.71875-.917968 9.300781 2.113282 10.3125 6.8125 1.007812 4.699219-1.925782 9.34375-6.605469 10.445313l-115.640625 24.804687c-.613281.132813-1.238281.203126-1.863281.203126zm0 0"
          fill="#f9eab0"/>
    <path d="m503.1875 365.988281c0 12.1875-9.878906 22.066407-22.066406 22.066407-12.191406 0-22.070313-9.878907-22.070313-22.066407s9.878907-22.070312 22.070313-22.070312c12.1875 0 22.066406 9.882812 22.066406 22.070312zm0 0"
          fill="#af8066"/>
    <path d="m459.933594 148.035156c-.625.003906-1.25-.0625-1.863282-.195312l-115.640624-24.804688c-4.679688-1.101562-7.617188-5.746094-6.605469-10.445312 1.007812-4.703125 5.59375-7.730469 10.3125-6.8125l115.640625 24.804687c4.398437.960938 7.371094 5.074219 6.898437 9.554688-.472656 4.476562-4.242187 7.878906-8.742187 7.898437zm0 0"
          fill="#f9eab0"/>
    <path d="m503.1875 145.296875c0 12.1875-9.878906 22.070313-22.066406 22.070313-12.191406 0-22.070313-9.882813-22.070313-22.070313s9.878907-22.066406 22.070313-22.066406c12.1875 0 22.066406 9.878906 22.066406 22.066406zm0 0"
          fill="#af8066"/>
</svg>