<svg height="512pt" viewBox="-12 0 512 512" width="512pt" xmlns="http://www.w3.org/2000/svg">
    <path d="m318.324219 42.78125c-.03125 7.570312-2.066407 14.996094-5.902344 21.523438l-113.160156 196.121093-5.378907 9.285157v207.578124c0 19.167969-15.542968 34.710938-34.714843 34.710938-19.167969 0-34.710938-15.542969-34.710938-34.710938v-207.578124l-5.378906-9.285157-113.160156-196.121093c-3.835938-6.527344-5.871094-13.953126-5.902344-21.523438-.371094-12.171875 5.828125-23.605469 16.226563-29.9375 18.390624-8.988281 40.589843-1.523438 49.8125 16.75l93.113281 161.320312 93.117187-161.320312c9.222656-18.273438 31.421875-25.738281 49.8125-16.75 10.398438 6.332031 16.597656 17.765625 16.226563 29.9375zm0 0"
          fill="#4482c3"/>
    <path d="m488.933594 399.1875c0 62.308594-38.878906 112.8125-86.78125 112.8125-5.828125 0-11.632813-.761719-17.269532-2.257812h-.171874c-6.023438-1.660157-11.824219-4.050782-17.269532-7.113282-30.632812-17.445312-52.066406-57.1875-52.066406-103.441406s21.433594-86 52.066406-103.355469c5.425782-3.128906 11.230469-5.546875 17.269532-7.203125h.171874c5.636719-1.496094 11.441407-2.253906 17.269532-2.257812 47.902344 0 86.78125 50.507812 86.78125 112.816406zm0 0"
          fill="#d75e72"/>
    <path d="m384.882812 509.742188c5.636719 1.496093 11.441407 2.257812 17.269532 2.257812h-35.058594c-5.714844 0-11.40625-.761719-16.921875-2.257812h-.171875c-39.574219-10.585938-69.339844-56.058594-69.339844-110.554688 0-54.5 29.765625-99.972656 69.339844-110.558594h.171875c5.632813-1.496094 11.4375-2.253906 17.269531-2.257812h34.710938c-5.828125.003906-11.632813.761718-17.269532 2.257812h-.171874c-6.039063 1.65625-11.84375 4.074219-17.269532 7.203125-30.632812 17.355469-52.066406 57.101563-52.066406 103.355469s21.433594 85.996094 52.066406 103.441406c5.445313 3.0625 11.246094 5.453125 17.269532 7.113282zm0 0"
          fill="#f29c1f"/>
    <g fill="#802d40">
        <path d="m350.171875 509.742188c5.515625 1.496093 11.207031 2.257812 16.921875 2.257812h-34.363281c-47.902344 0-86.78125-50.503906-86.78125-112.8125s38.878906-112.816406 86.78125-112.816406h34.710937c-5.832031.003906-11.636718.761718-17.269531 2.257812h-.171875c-39.574219 10.585938-69.339844 56.058594-69.339844 110.558594 0 54.496094 29.765625 99.96875 69.339844 110.554688zm0 0"/>
        <path d="m350.085938 425.21875c-4.792969 0-8.679688-3.882812-8.679688-8.675781 0-77.113281 31.242188-95.996094 49.804688-100.386719 22.285156-5.277344 47 5.570312 53.410156 18.40625 2.144531 4.285156.410156 9.5-3.878906 11.644531-4.285157 2.144531-9.5.410157-11.644532-3.878906-8.960937-8.695313-21.746094-12.199219-33.886718-9.285156-23.507813 5.554687-36.449219 35.207031-36.449219 83.5 0 4.792969-3.882813 8.675781-8.675781 8.675781zm0 0"/>
        <path d="m405.570312 484.394531c-11.417968-.28125-22.652343-2.957031-32.976562-7.851562-4.292969-2-6.191406-7.070313-4.265625-11.398438s6.964844-6.3125 11.324219-4.457031c17.648437 7.808594 32.4375 8.367188 43.960937 1.554688 26.269531-15.5 30.605469-63.308594 30.605469-63.785157.402344-4.792969 4.613281-8.351562 9.40625-7.953125 4.789062.402344 8.351562 4.609375 7.953125 9.402344-.183594 2.324219-5.128906 57.152344-39.050781 77.234375-8.15625 4.832031-17.476563 7.339844-26.957032 7.253906zm0 0"/>
    </g>
    <path d="m358.761719 295.050781c-4.792969 0-8.675781-3.886719-8.675781-8.679687v-238.640625c0-26.363281 21.367187-47.730469 47.726562-47.730469s47.730469 21.367188 47.730469 47.730469v56.40625c0 4.792969-3.886719 8.675781-8.679688 8.675781s-8.675781-3.882812-8.675781-8.675781v-56.40625c0-16.777344-13.597656-30.375-30.375-30.375-16.773438 0-30.371094 13.597656-30.371094 30.375v238.640625c0 4.792968-3.886718 8.679687-8.679687 8.679687zm0 0"
          fill="#f29c1f"/>
    <path d="m436.863281 173.558594c-20.324219-1.289063-35.8125-18.714844-34.710937-39.050782-1.101563-20.335937 14.386718-37.761718 34.710937-39.050781 20.324219 1.289063 35.816407 18.714844 34.714844 39.050781 1.101563 20.335938-14.390625 37.761719-34.714844 39.050782zm0-60.746094c-10.695312 1.359375-18.378906 10.964844-17.355469 21.695312-1.023437 10.734376 6.660157 20.339844 17.355469 21.695313 10.695313-1.355469 18.378907-10.960937 17.355469-21.695313 1.023438-10.730468-6.660156-20.335937-17.355469-21.695312zm0 0"
          fill="#f29c1f"/>
    <path d="m428.1875 399.1875c0-19.171875-9.714844-34.714844-21.695312-34.714844-11.980469 0-21.695313 15.542969-21.695313 34.714844 0 19.167969 9.714844 34.710938 21.695313 34.710938 11.980468 0 21.695312-15.542969 21.695312-34.710938zm0 0"
          fill="#802d40"/>
</svg>