<svg height="503pt" viewBox="0 0 503 503.73534" width="503pt" xmlns="http://www.w3.org/2000/svg">
    <path d="m118.128906 433.898438h350.414063c19.171875 0 34.710937 15.539062 34.710937 34.710937s-15.539062 34.710937-34.710937 34.710937h-433.464844c-13.921875-.019531-26.484375-8.355468-31.914063-21.179687-5.425781-12.820313-2.667968-27.644531 7.007813-37.65625l-.433594-.433594 374.628907-374.628906h-349.289063c-19.167969 0-34.710937-15.539063-34.710937-34.710937 0-19.167969 15.542968-34.710938 34.710937-34.710938h433.464844c19.136719 0 34.664062 15.488281 34.710937 34.625v.433594c-.066406 10.554687-4.957031 20.496094-13.273437 26.988281l-59.445313 59.445313-8.246094 8.242187v.089844l-.433593.34375zm0 0"
          fill="#ff5364"/>
    <g fill="#95a5a5">
        <path d="m416.128906 225.628906h-26.035156c-4.792969 0-8.675781-3.886718-8.675781-8.679687s3.882812-8.679688 8.675781-8.679688h26.035156c4.792969 0 8.679688 3.886719 8.679688 8.679688s-3.886719 8.679687-8.679688 8.679687zm0 0"/>
        <path d="m442.164062 208.269531h-26.035156c-4.792968 0-8.679687-3.882812-8.679687-8.675781s3.886719-8.679688 8.679687-8.679688h26.035156c4.792969 0 8.675782 3.886719 8.675782 8.679688s-3.882813 8.675781-8.675782 8.675781zm0 0"/>
        <path d="m416.128906 190.914062h-26.035156c-4.792969 0-8.675781-3.882812-8.675781-8.675781s3.882812-8.679687 8.675781-8.679687h26.035156c4.792969 0 8.679688 3.886718 8.679688 8.679687s-3.886719 8.675781-8.679688 8.675781zm0 0"/>
        <path d="m442.164062 173.558594h-26.035156c-4.792968 0-8.679687-3.882813-8.679687-8.675782 0-4.792968 3.886719-8.679687 8.679687-8.679687h26.035156c4.792969 0 8.675782 3.886719 8.675782 8.679687 0 4.792969-3.882813 8.675782-8.675782 8.675782zm0 0"/>
        <path d="m424.808594 147.527344c0 4.789062-3.886719 8.675781-8.679688 8.675781h-11.628906c-2.304688 0-4.515625-.902344-6.160156-2.515625l14.839844-14.839844h2.949218c4.792969 0 8.679688 3.886719 8.679688 8.679688zm0 0"/>
        <path d="m450.839844 130.167969c0 4.792969-3.882813 8.679687-8.675782 8.679687h-20.308593c-2.304688 0-4.515625-.902344-6.160157-2.515625l6.160157-6.164062.433593-.34375v-.089844l8.246094-8.242187h11.628906c4.792969 0 8.675782 3.882812 8.675782 8.675781zm0 0"/>
        <path d="m424.808594 135.898438v115.761718c0 4.792969-3.886719 8.679688-8.679688 8.679688-4.792968 0-8.679687-3.886719-8.679687-8.679688v-107.085937l14.40625-14.40625.433593-.34375c1.613282 1.609375 2.515626 3.792969 2.519532 6.074219zm0 0"/>
        <path d="m86.367188 112.8125h-26.035157c-4.792969 0-8.675781-3.882812-8.675781-8.675781s3.882812-8.679688 8.675781-8.679688h26.035157c4.792968 0 8.675781 3.886719 8.675781 8.679688s-3.882813 8.675781-8.675781 8.675781zm0 0"/>
        <path d="m112.398438 130.167969h-26.03125c-4.792969 0-8.679688-3.882813-8.679688-8.675781 0-4.792969 3.886719-8.679688 8.679688-8.679688h26.03125c4.792968 0 8.679687 3.886719 8.679687 8.679688 0 4.792968-3.886719 8.675781-8.679687 8.675781zm0 0"/>
        <path d="m86.367188 147.527344h-26.035157c-4.792969 0-8.675781-3.886719-8.675781-8.679688 0-4.792968 3.882812-8.679687 8.675781-8.679687h26.035157c4.792968 0 8.675781 3.886719 8.675781 8.679687 0 4.792969-3.882813 8.679688-8.675781 8.679688zm0 0"/>
        <path d="m112.398438 164.882812h-26.03125c-4.792969 0-8.679688-3.886718-8.679688-8.679687s3.886719-8.675781 8.679688-8.675781h26.03125c4.792968 0 8.679687 3.882812 8.679687 8.675781s-3.886719 8.679687-8.679687 8.679687zm0 0"/>
        <path d="m86.367188 182.238281h-26.035157c-4.792969 0-8.675781-3.886719-8.675781-8.679687 0-4.792969 3.882812-8.675782 8.675781-8.675782h26.035157c4.792968 0 8.675781 3.882813 8.675781 8.675782 0 4.792968-3.882813 8.679687-8.675781 8.679687zm0 0"/>
        <path d="m112.398438 199.59375h-26.03125c-4.792969 0-8.679688-3.886719-8.679688-8.679688 0-4.792968 3.886719-8.675781 8.679688-8.675781h26.03125c4.792968 0 8.679687 3.882813 8.679687 8.675781 0 4.792969-3.886719 8.679688-8.679687 8.679688zm0 0"/>
        <path d="m86.367188 216.949219h-26.035157c-4.792969 0-8.675781-3.886719-8.675781-8.679688s3.882812-8.675781 8.675781-8.675781h26.035157c4.792968 0 8.675781 3.882812 8.675781 8.675781s-3.882813 8.679688-8.675781 8.679688zm0 0"/>
        <path d="m112.398438 234.304688h-26.03125c-4.792969 0-8.679688-3.886719-8.679688-8.675782 0-4.792968 3.886719-8.679687 8.679688-8.679687h26.03125c4.792968 0 8.679687 3.886719 8.679687 8.679687 0 4.789063-3.886719 8.675782-8.679687 8.675782zm0 0"/>
        <path d="m86.367188 373.152344c-4.792969 0-8.679688-3.886719-8.679688-8.679688v-295.050781c0-4.789063 3.886719-8.675781 8.679688-8.675781 4.792968 0 8.675781 3.886718 8.675781 8.675781v295.050781c0 4.792969-3.882813 8.679688-8.675781 8.679688zm0 0"/>
        <path d="m86.367188 251.660156h-26.035157c-4.792969 0-8.675781-3.882812-8.675781-8.675781s3.882812-8.679687 8.675781-8.679687h26.035157c4.792968 0 8.675781 3.886718 8.675781 8.679687s-3.882813 8.675781-8.675781 8.675781zm0 0"/>
        <path d="m112.398438 269.015625h-26.03125c-4.792969 0-8.679688-3.882813-8.679688-8.675781 0-4.792969 3.886719-8.679688 8.679688-8.679688h26.03125c4.792968 0 8.679687 3.886719 8.679687 8.679688 0 4.792968-3.886719 8.675781-8.679687 8.675781zm0 0"/>
        <path d="m86.367188 286.371094h-26.035157c-4.792969 0-8.675781-3.882813-8.675781-8.675782 0-4.792968 3.882812-8.679687 8.675781-8.679687h26.035157c4.792968 0 8.675781 3.886719 8.675781 8.679687 0 4.792969-3.882813 8.675782-8.675781 8.675782zm0 0"/>
        <path d="m112.398438 303.730469h-26.03125c-4.792969 0-8.679688-3.886719-8.679688-8.679688s3.886719-8.679687 8.679688-8.679687h26.03125c4.792968 0 8.679687 3.886718 8.679687 8.679687s-3.886719 8.679688-8.679687 8.679688zm0 0"/>
        <path d="m86.367188 321.085938h-26.035157c-4.792969 0-8.675781-3.886719-8.675781-8.679688s3.882812-8.675781 8.675781-8.675781h26.035157c4.792968 0 8.675781 3.882812 8.675781 8.675781s-3.882813 8.679688-8.675781 8.679688zm0 0"/>
    </g>
    <path d="m445.285156 356.144531c16.316406-2.171875 31.589844-16.230469 31.589844-30.722656-.628906-25.738281-18.394531-47.878906-43.390625-54.0625h-34.710937c-24.996094 6.183594-42.761719 28.324219-43.390626 54.0625 0 14.492187 15.273438 28.550781 31.589844 30.722656zm0 0"
          fill="#bdc3c7"/>
    <path d="m433.484375 343.472656c1.066406.613282 2.082031 1.3125 3.039063 2.082032 3.621093 2.886718 6.605468 6.492187 8.761718 10.589843 1.167969 2.441407 2.070313 5 2.691406 7.636719l17.53125 76.019531c5.402344 20.679688-2.65625 42.539063-20.191406 54.765625-17.539062 12.226563-40.835937 12.226563-58.371094 0-17.539062-12.226562-25.597656-34.085937-20.195312-54.765625l17.53125-76.019531c.621094-2.636719 1.523438-5.195312 2.691406-7.636719 2.742188-5.195312 6.8125-9.566406 11.800782-12.671875zm0 0"
          fill="#95a5a5"/>
    <path d="m416.128906 251.660156c9.585938 0 17.355469 7.769532 17.355469 17.355469v95.457031c0 9.585938-7.769531 17.359375-17.355469 17.359375-9.585937 0-17.355468-7.773437-17.355468-17.359375v-95.457031c0-9.585937 7.769531-17.355469 17.355468-17.355469zm0 0"
          fill="#7f8c8d"/>
    <path d="m433.484375 451.253906c0 9.585938-7.769531 17.355469-17.355469 17.355469-9.585937 0-17.355468-7.769531-17.355468-17.355469 0-9.585937 7.769531-17.355468 17.355468-17.355468 9.585938 0 17.355469 7.769531 17.355469 17.355468zm0 0"
          fill="#7f8c8d"/>
</svg>