<svg height="512pt" viewBox="0 -4 512 512" width="512pt" xmlns="http://www.w3.org/2000/svg">
    <path d="m146.171875 286.371094h-49.359375c-23.214844.300781-45.589844-8.691406-62.140625-24.972656s-25.910156-38.5-25.992187-61.71875v-110.390626c-.039063-48.878906 39.257812-88.691406 88.132812-89.289062h49.359375c48.875.597656 88.171875 40.410156 88.132813 89.289062 0 14.375-11.65625 26.03125-26.035157 26.03125-14.59375-.542968-26.117187-12.574218-26.03125-27.179687-.019531-19.910156-16.15625-36.050781-36.066406-36.074219h-49.359375c-19.910156.023438-36.042969 16.160156-36.066406 36.066406v110.105469c.023437 19.910157 16.15625 36.042969 36.066406 36.066407h49.359375c19.910156-.023438 36.042969-16.15625 36.066406-36.066407.058594-6.753906 2.871094-13.195312 7.78125-17.832031 4.914063-4.640625 11.503907-7.078125 18.25-6.75 14.378907 0 26.035157 11.65625 26.035157 26.03125-.085938 23.214844-9.445313 45.433594-25.996094 61.714844-16.550782 16.277344-38.921875 25.269531-62.136719 24.96875zm0 0"
          fill="#f29c1f"/>
    <path d="m459.933594 232.046875v29.765625c0 14.378906 11.65625 26.035156 26.03125 26.035156 14.378906 0 26.035156-11.65625 26.035156-26.035156v-235.777344c0-14.378906-11.65625-26.035156-26.035156-26.035156-14.375 0-26.03125 11.65625-26.03125 26.035156v86.777344h-121.492188v-86.777344c0-14.378906-11.65625-26.035156-26.035156-26.035156s-26.035156 11.65625-26.035156 26.035156v235.777344c-.011719 12.441406 8.789062 23.144531 20.996094 25.535156 12.207031 2.390625 24.398437-4.203125 29.078124-15.726562v-.085938l1.996094-51.636718v-55.015626h54.324219zm0 0"
          fill="#f29c1f"/>
    <path d="m424.960938 242.722656c1.527343.175782 3.0625.261719 4.597656.261719 19.304687 0 36.707031-11.628906 44.097656-29.464844 7.386719-17.835937 3.304688-38.363281-10.347656-52.015625-13.648438-13.648437-34.179688-17.734375-52.015625-10.34375-17.832031 7.386719-29.460938 24.789063-29.460938 44.09375 0 1.5625.085938 3.039063.171875 4.601563-1.496094-.175781-3.003906-.265625-4.511718-.261719-12.660157 0-24.800782 5.027344-33.75 13.980469-8.949219 8.949219-13.980469 21.089843-13.980469 33.746093-.011719 8.53125 2.296875 16.898438 6.683593 24.214844v.085938c8.539063 14.554687 24.171876 23.476562 41.046876 23.429687.664062.015625 1.332031-.011719 1.996093-.085937h.695313c-4.648438 7.917968-7.074219 16.941406-7.03125 26.121094-.007813 2.910156.253906 5.8125.78125 8.675781h102.574218c.523438-2.863281.785157-5.765625.78125-8.675781 0-28.757813-23.3125-52.070313-52.070312-52.070313-1.214844-.027344-2.433594.03125-3.644531.175781 2.414062-5.53125 3.652343-11.5 3.644531-17.53125.015625-.695312-.011719-1.390625-.085938-2.082031zm0 0"
          fill="#95a5a5"/>
    <g fill="#59474e">
        <path d="m164.882812 442.578125h-60.746093c-4.792969 0-8.679688-3.886719-8.679688-8.679687 0-4.792969 3.886719-8.679688 8.679688-8.679688h60.746093c4.792969 0 8.675782 3.886719 8.675782 8.679688 0 4.792968-3.882813 8.679687-8.675782 8.679687zm0 0"/>
        <path d="m34.710938 442.578125h-26.03125c-4.792969 0-8.679688-3.886719-8.679688-8.679687 0-4.792969 3.886719-8.679688 8.679688-8.679688h26.03125c4.792968 0 8.679687 3.886719 8.679687 8.679688 0 4.792968-3.886719 8.679687-8.679687 8.679687zm0 0"/>
        <path d="m303.730469 442.578125h-69.425781c-4.792969 0-8.675782-3.886719-8.675782-8.679687 0-4.792969 3.882813-8.679688 8.675782-8.679688h69.425781c4.792969 0 8.675781 3.886719 8.675781 8.679688 0 4.792968-3.882812 8.679687-8.675781 8.679687zm0 0"/>
    </g>
    <path d="m164.882812 399.1875h69.421876v60.746094c0 4.792968-3.886719 8.675781-8.675782 8.675781h-52.070312c-4.792969 0-8.675782-3.882813-8.675782-8.675781zm0 0"
          fill="#af8066"/>
    <path d="m34.710938 399.1875h69.425781v60.746094c0 4.792968-3.886719 8.675781-8.679688 8.675781h-52.066406c-4.792969 0-8.679687-3.882813-8.679687-8.675781zm0 0"
          fill="#af8066"/>
    <path d="m34.710938 364.472656h69.425781c9.585937 0 17.355469 7.773438 17.355469 17.359375 0 9.582031-7.769532 17.355469-17.355469 17.355469h-69.425781c-9.585938 0-17.355469-7.773438-17.355469-17.355469 0-9.585937 7.769531-17.359375 17.355469-17.359375zm0 0"
          fill="#7f5b53"/>
    <path d="m164.882812 364.472656h69.421876c9.585937 0 17.355468 7.773438 17.355468 17.359375 0 9.582031-7.769531 17.355469-17.355468 17.355469h-69.421876c-9.585937 0-17.355468-7.773438-17.355468-17.355469 0-9.585937 7.769531-17.359375 17.355468-17.359375zm0 0"
          fill="#7f5b53"/>
    <path d="m442.578125 373.152344h-138.847656v121.492187c0 4.792969 3.882812 8.675781 8.675781 8.675781h173.558594c4.792968 0 8.679687-3.882812 8.679687-8.675781v-121.492187zm0 0"
          fill="#c2615f"/>
    <path d="m355.796875 459.933594v43.386718h-43.390625c-4.792969 0-8.675781-3.882812-8.675781-8.675781v-34.710937zm0 0"
          fill="#af8066"/>
    <path d="m355.796875 459.933594h86.78125v43.386718h-86.78125zm0 0" fill="#cb9080"/>
    <path d="m494.644531 459.933594v34.710937c0 4.792969-3.886719 8.675781-8.679687 8.675781h-43.386719v-43.386718zm0 0"
          fill="#af8066"/>
    <path d="m399.1875 416.542969h95.457031v43.390625h-95.457031zm0 0" fill="#59474e"/>
    <path d="m303.730469 416.542969h95.457031v43.390625h-95.457031zm0 0" fill="#7f5b53"/>
    <path d="m303.730469 373.152344h52.066406v43.390625h-52.066406zm0 0" fill="#af8066"/>
    <path d="m355.796875 373.152344h86.78125v43.390625h-86.78125zm0 0" fill="#cb9080"/>
    <path d="m442.578125 373.152344h52.066406v43.390625h-52.066406zm0 0" fill="#af8066"/>
    <path d="m303.730469 329.761719h190.914062c9.585938 0 17.355469 7.773437 17.355469 17.355469v8.679687c0 9.585937-7.769531 17.355469-17.355469 17.355469h-190.914062c-9.585938 0-17.359375-7.769532-17.359375-17.355469v-8.679687c0-9.582032 7.773437-17.355469 17.359375-17.355469zm0 0"
          fill="#7f5b53"/>
</svg>