<svg height="512pt" viewBox="0 0 512.0231 512" width="512pt" xmlns="http://www.w3.org/2000/svg">
    <path d="m512.023438 26.5v239.84375c0 14.628906-11.855469 26.484375-26.484376 26.484375-14.625 0-26.480468-11.855469-26.480468-26.484375v-98.601562h-123.585938v98.601562c0 14.628906-11.859375 26.484375-26.484375 26.484375s-26.484375-11.855469-26.484375-26.484375v-239.84375c0-14.625 11.859375-26.484375 26.484375-26.484375s26.484375 11.859375 26.484375 26.484375v88.277344h123.585938v-88.277344c0-14.625 11.855468-26.484375 26.480468-26.484375 14.628907 0 26.484376 11.859375 26.484376 26.484375zm0 0"
          fill="#ff5364"/>
    <path d="m89.296875 264.84375v-211.859375h-61.792969c-12.929687.230469-24.226562-8.691406-26.996094-21.320313-1.546874-7.78125.476563-15.84375 5.511719-21.972656 5.035157-6.132812 12.554688-9.6796872 20.484375-9.675781h176.09375c14.460938-.285156 26.667969 10.695313 27.90625 25.105469.375 7.261718-2.246094 14.355468-7.253906 19.625-5.007812 5.269531-11.960938 8.246094-19.230469 8.238281h-61.792969v211.859375c0 14.625-11.855468 26.484375-26.484374 26.484375-14.609376-.019531-26.445313-11.871094-26.445313-26.484375zm0 0"
          fill="#ff5364"/>
    <path d="m450.230469 463.378906c.085937 0 .085937 0 .085937.085938 11.125 4.945312 17.570313 11.125 17.570313 17.65625 0 17.035156-43.433594 30.894531-97.105469 30.894531s-97.101562-13.859375-97.101562-30.894531c0-6.53125 6.441406-12.710938 17.566406-17.65625 0-.085938 0-.085938.085937-.085938zm0 0"
          fill="#7f5b53"/>
    <path d="m450.230469 375.277344v88.277344l.085937-.089844c0 .089844 0 .089844-.085937.089844-25.371094 9.523437-52.363281 13.992187-79.449219 13.152343-27.085938.839844-54.078125-3.628906-79.449219-13.152343-.085937 0-.085937 0-.085937-.089844l.085937.089844v-88.277344zm0 0"
          fill="#b49aca"/>
    <path d="m113.609375 490.089844c-13.222656-.085938-26.25-3.175782-38.101563-9.03125-11.945312-5.140625-21.21875-15.011719-25.601562-27.257813l-5.375-18.796875c-.957031-3.058594-.179688-6.394531 2.027344-8.714844 2.207031-2.324218 5.5-3.269531 8.601562-2.46875 3.105469.800782 5.53125 3.21875 6.339844 6.320313l5.382812 18.804687c3.105469 7.457032 9.082032 13.351563 16.585938 16.347657 13.386719 7.074219 28.933594 8.890625 43.59375 5.101562l11.949219-4.414062c13.042969-4.875 27.527343-4.121094 39.992187 2.082031 16.007813 7.964844 35.4375 1.472656 43.449219-14.511719l5.480469-10.960937c8.429687-17.003906 25.792968-27.738282 44.773437-27.675782h18.625c4.875 0 8.828125 3.953126 8.828125 8.828126s-3.953125 8.828124-8.828125 8.828124h-18.625c-12.300781-.070312-23.570312 6.875-29.042969 17.890626l-5.472656 10.949218c-12.367187 24.726563-42.433594 34.757813-67.167968 22.402344-8.074219-4.007812-17.445313-4.484375-25.882813-1.316406l-11.960937 4.414062c-6.285157 2.210938-12.910157 3.285156-19.570313 3.179688zm0 0"
          fill="#b49aca"/>
    <path d="m52.988281 388.429688c-4.875 0-8.828125-3.949219-8.828125-8.828126v-97.101562c0-4.875 3.953125-8.828125 8.828125-8.828125s8.828125 3.953125 8.828125 8.828125v97.101562c0 4.878907-3.953125 8.828126-8.828125 8.828126zm0 0"
          fill="#bdc3c7"/>
    <path d="m52.988281 441.394531c-14.855469 0-26.484375-15.507812-26.484375-35.308593 0-19.800782 11.628906-35.308594 26.484375-35.308594s26.484375 15.507812 26.484375 35.308594c0 19.800781-11.628906 35.308593-26.484375 35.308593zm0-52.964843c-3.601562 0-8.828125 6.878906-8.828125 17.65625 0 10.777343 5.226563 17.65625 8.828125 17.65625 3.601563 0 8.828125-6.878907 8.828125-17.65625 0-10.777344-5.226562-17.65625-8.828125-17.65625zm0 0"
          fill="#bdc3c7"/>
    <path d="m467.886719 357.535156c0-17.066406-43.476563-30.898437-97.105469-30.898437s-97.101562 13.832031-97.101562 30.898437c0 17.0625 43.472656 30.894532 97.101562 30.894532s97.105469-13.832032 97.105469-30.894532zm0 0"
          fill="#7f5b53"/>
    <path d="m379.609375 361.949219h-17.65625c-4.875 0-8.828125-3.953125-8.828125-8.828125s3.953125-8.828125 8.828125-8.828125h17.65625c4.875 0 8.828125 3.953125 8.828125 8.828125s-3.953125 8.828125-8.828125 8.828125zm0 0"
          fill="#59474e"/>
</svg>