<svg height="512pt" viewBox="0 0 512.00001 512" width="512pt" xmlns="http://www.w3.org/2000/svg">
    <path d="m229.515625 90.835938c.023437-49.730469-39.960937-90.226563-89.6875-90.835938h-50.140625c-49.726562.609375-89.7109375 41.105469-89.6875 90.835938v112.285156c.09375 23.621094 9.621094 46.226562 26.460938 62.789062 16.84375 16.5625 39.609374 25.707032 63.226562 25.398438h50.140625c14.644531.015625 29.078125-3.464844 42.109375-10.148438l2.382812 2.382813c10.433594 9.722656 26.695313 9.433593 36.78125-.648438 10.082032-10.085937 10.371094-26.347656.648438-36.78125l-2.207031-2.207031c6.589843-12.582031 10.015625-26.582031 9.972656-40.785156zm-52.964844 109.992187-10.945312-10.945313c-4.9375-5.003906-11.683594-7.804687-18.714844-7.769531-10.738281-.019531-20.429687 6.4375-24.546875 16.355469s-1.847656 21.335938 5.746094 28.929688l10.945312 10.945312h-49.347656c-9.742188.007812-19.085938-3.859375-25.972656-10.746094-6.890625-6.890625-10.757813-16.234375-10.75-25.976562v-111.933594c-.007813-9.742188 3.859375-19.085938 10.75-25.972656 6.886718-6.890625 16.230468-10.757813 25.972656-10.75h50.140625c9.742187-.007813 19.085937 3.859375 25.976563 10.75 6.886718 6.886718 10.753906 16.230468 10.746093 25.972656zm0 0"
          fill="#24ae5f"/>
    <path d="m459.035156 26.484375v175.171875c0 20.261719-16.425781 36.6875-36.6875 36.6875h-50.210937c-20.261719 0-36.6875-16.425781-36.6875-36.6875v-175.171875c0-14.628906-11.859375-26.484375-26.484375-26.484375s-26.480469 11.855469-26.480469 26.484375v175.171875c0 49.515625 40.136719 89.652344 89.652344 89.652344h51.675781c48.703125 0 88.1875-39.480469 88.1875-88.1875v-176.636719c0-14.628906-11.855469-26.484375-26.484375-26.484375-14.625 0-26.480469 11.855469-26.480469 26.484375zm0 0"
          fill="#24ae5f"/>
    <path d="m358.3125 414.898438h-.089844l-25.15625 60.46875c-3.394531 8.167968-2.480468 17.492187 2.429688 24.851562 4.914062 7.359375 13.175781 11.777344 22.019531 11.78125h114.761719c8.84375-.003906 17.105468-4.421875 22.019531-11.78125 4.910156-7.359375 5.824219-16.683594 2.429687-24.851562l-25.15625-60.46875h-.089843"
          fill="#2c3e50"/>
    <path d="m441.378906 485.515625h-52.964844c-4.875 0-8.828124-3.949219-8.828124-8.824219 0-4.878906 3.953124-8.828125 8.828124-8.828125h52.964844c4.875 0 8.828125 3.949219 8.828125 8.828125 0 4.875-3.953125 8.824219-8.828125 8.824219zm0 0"
          fill="#ecf0f1"/>
    <path d="m293.765625 410.84375c-4.308594-24.804688 24.027344-64.800781 24.027344-64.800781s-49.011719 1.339843-67.25-16.015625c-3.167969-2.882813-7.96875-3.003906-11.28125-.289063l-64.6875 51.339844c-3.34375 2.652344-4.308594 7.316406-2.296875 11.078125l26.34375 49.265625c2.011718 3.761719 6.425781 5.546875 10.488281 4.238281l78.671875-25.28125c4.074219-1.261718 6.617188-5.3125 5.984375-9.535156zm0 0"
          fill="#bdc3c7"/>
    <path d="m255.511719 379.324219c4.597656 8.601562 1.355469 19.296875-7.246094 23.894531-8.597656 4.597656-19.296875 1.355469-23.890625-7.246094-4.597656-8.597656-1.355469-19.292968 7.242188-23.890625 8.601562-4.597656 19.296874-1.355469 23.894531 7.242188zm0 0"
          fill="#95a5a5"/>
    <path d="m255.523438 388.148438c-4.050782.007812-7.589844-2.746094-8.578126-6.675782-.988281-3.929687.828126-8.027344 4.402344-9.9375l62.277344-33.296875c2.78125-1.488281 6.148438-1.378906 8.824219.289063 2.679687 1.664062 4.265625 4.632812 4.164062 7.785156-.105469 3.152344-1.878906 6.011719-4.664062 7.496094l-62.277344 33.296875c-1.277344.683593-2.699219 1.042969-4.148437 1.042969zm0 0"
          fill="#95a5a5"/>
    <path d="m82.273438 512h-82.273438v-36.105469l172.277344-83.753906 26.351562 49.28125zm0 0" fill="#d75e72"/>
    <path d="m485.515625 401.65625c0-12.1875-31.617187-22.070312-70.617187-22.070312-39.003907 0-70.621094 9.882812-70.621094 22.070312s31.617187 22.066406 70.621094 22.066406c39 0 70.617187-9.878906 70.617187-22.066406zm0 0"
          fill="#35495e"/>
</svg>